<?xml version="1.0" encoding="utf-8"?>
<!-- Generator: Adobe Illustrator 16.0.3, SVG Export Plug-In . SVG Version: 6.00 Build 0)  -->
<!DOCTYPE svg PUBLIC "-//W3C//DTD SVG 1.1//EN" "http://www.w3.org/Graphics/SVG/1.1/DTD/svg11.dtd">
<svg version="1.1" id="Capa_1" xmlns:bx="https://boxy-svg.com"
	 xmlns="http://www.w3.org/2000/svg" xmlns:xlink="http://www.w3.org/1999/xlink" x="0px" y="0px" width="841.891px"
	 height="595.281px" viewBox="0 0 841.891 595.281" enable-background="new 0 0 841.891 595.281" xml:space="preserve">
<path fill="#3F95E6" d="M750.416,399.858c-0.862,1.879-1.724,3.735-2.581,5.563c-1.341,2.844-2.663,5.631-3.968,8.364
	c-0.582,1.21-1.162,2.398-1.727,3.586c-6.4,13.213-12.376,24.9-17.451,34.512c-9.382,17.737-27.588,28.896-47.49,29.104
	l-112.858,1.241h-1.19l-9.677,0.104l-8.274,0.091l-25.378,0.279h-1.026l-12.919,0.141h-0.396l-79.631,0.873l-71.08,0.752
	l-8.268,0.09l-51.351,0.565h-0.06l-33.303,0.36h-0.357l-105.306,1.15l-31.503,0.346c-2.682,0.031-5.363-0.104-8.03-0.406l0,0
	c-0.907-0.104-1.816-0.225-2.715-0.367c-14.692-2.291-28.165-9.602-38.171-20.712c-13.553-15.063-23.414-32.639-30.037-51.71
	c-0.958-2.753-1.851-5.54-2.68-8.364c-22.928-78.325,5.024-179.376,55.333-246.999c2.109-2.828,4.253-5.584,6.43-8.272l0.053-0.059
	c15.471-19.193,32.819-35.227,51.297-46.627c32.746-20.237,69.026-25.937,104.711-8.948c30.193,14.378,58.384,21.139,85.71,22.975
	c2.761,0.18,5.522,0.315,8.268,0.397c62.686,1.994,121.434-20.831,190.422-35.563c2.745-0.587,5.5-1.166,8.276-1.715
	c49.215-9.897,103.81-15.116,168.734-4.143c6.745,1.114,13.402,2.722,19.916,4.813c2.862,0.933,5.621,1.935,8.275,3.008
	c30.989,12.739,47.89,36.278,55.071,65.772c0.681,2.738,1.269,5.523,1.764,8.356C819.986,229.363,782.694,330.001,750.416,399.858z"
	/>
<path fill="#FFB8B8" d="M396.997,200.368c0,0,6.803,51.281-3.662,57.038c-10.466,5.755,62.269,6.279,62.269,6.279
	s-16.221-44.479-8.895-58.084L396.997,200.368z"/>
<rect x="619.05" y="419.627" fill="#FFFFFF" width="32.234" height="19.07"/>
<rect x="614.619" y="423.655" fill="#FFFFFF" width="40.694" height="6.984"/>
<rect x="625.036" y="417.303" fill="#FFFFFF" width="20.135" height="5.277"/>
<rect x="619.454" y="451.053" fill="#FFFFFF" width="31.964" height="21.623"/>
<circle fill="#FFB8B8" cx="423.946" cy="182.315" r="36.106"/>
<g transform="matrix(-1, 0, 0, 1, 1511.875854, -0.216741)">
	<title>Cabello</title>
	<path fill="#2F2E41" d="M1068.655,165.618c-0.89,2.669,33.687,21.112,32.214,19.754c-1.494-2.886-3.533-23.494-1.213-23.494
		L1068.655,165.618z"/>
	<path fill="#2F2E41" d="M1062.839,153.973l-8.396-7.746l1.117,10.11l-16.171-3.808l17.249,11.437"/>
	<path fill="#2F2E41" d="M783.222,161.268"/>
	<path fill="#2F2E41" d="M1095.114,170.923c5.235-1.936,17.991,13.891,17.977,17.691c5.283-6.811,8.336-24.726,8.587-24.154
		L1095.114,170.923z"/>
	<path fill="#2F2E41" d="M1060.964,166.946c-2.878,0.605-4.343,29.633-3.435,31.43c-4.861-3.661-12.396-13.045-10.42-21.086
		L1060.964,166.946z"/>
	<path fill="#2F2E41" d="M1073.21,168.303c-4.489,1.698-2.566,23.086-0.899,22.457c-3.32,2.373-19.523-19.136-19.48-24.046
		L1073.21,168.303z"/>
	<path fill="#2F2E41" d="M1059.422,158.571c0.863-28.992,30.186-21.896,33.714-35.496c3.515,7.833,12.121,26.007-3.271,26.455
		c0,0-33.85,19.186-34.231,19.074C1055.251,168.492,1059.454,159.866,1059.422,158.571z"/>
	<path fill="#2F2E41" d="M783.222,161.268"/>
	<path fill="#2F2E41" d="M1125.224,177.562c0,2.501,10.345,5.443,12.948,2.756c-9.604-6.444-4.613-26.552-25.772-25.158
		C1104.007,155.562,1109.505,158.042,1125.224,177.562z"/>
	<path fill="#2F2E41" d="M1109.205,159.299c3.064,8.684,26.13-5.284,28.496-10.348c-14.429,6.484-11.785-13.264-43.983-10.095
		C1086.19,139.866,1090.527,149.778,1109.205,159.299z"/>
	<path fill="#2F2E41" d="M1098.885,151.517c4.534,5.569,21.788-14.647,22.192-18.987c-10.39,9.197-21.894-0.966-33.728,5.157
		C1082.089,140.407,1082.668,149.441,1098.885,151.517z"/>
	<path fill="#2F2E41" d="M1059.88,160.714c-15.903-3.268-15.64,14.161-23.484,14.386c3.836,2.994,12.682,10.191,14.818,1.584
		c0,0,14.613-16.574,14.598-16.803C1065.797,159.653,1060.583,160.901,1059.88,160.714z"/>
	<path fill="#2F2E41" d="M1116.551,169.823c2.575,1.085,5.526,24.125,4.83,25.968c4.079-3.315,9.225-12.944,7.021-22.072
		L1116.551,169.823z"/>
	<path fill="#2F2E41" d="M1066.358,152.828c-2.233,0.679-4.661,1.359-7.281,2.039c-4.139,1.073-4.332,5.345-0.582,12.813
		c0.592,1.181-0.67,1.569-3.785,1.165c-2.241-0.289-2.338,1.943-0.291,6.699c1.124,2.61,3.938,2.999,8.445,1.164
		c4.123-1.677,7.812-4.298,11.065-7.863c2.816-3.084,6.99-2.985,12.522,0.292c6.259,3.708,13.636,4.679,22.134,2.912
		c4.516-0.94,9.078-0.26,13.688,2.039c0.904,0.45,1.585,1.421,2.039,2.911c0.887,2.916-2.893,1.55,1.462-4.47
		c2.317-3.204,1.223-6.983-4.395-10.963c-3.207-2.273,0.404-6.836-3.767-7.281c-4.325-0.461-6.558-1.433-9.027-6.406
		c-3.674-7.401-14.643-5.848-27.667,1.747C1076.485,152.212,1071.63,153.279,1066.358,152.828z"/>
</g>
<path fill="#FFFFFF" d="M509.904,262.754l-6.048,27.545l-12.791,58.276l-0.383,3.192l-4.414,36.948l-2.937,24.544l-1.97,16.486
	c-11.969,6.153-20.646,10.4-20.646,10.4s-0.747-3.741-1.949-8.529c-8.4,2.52-23.947,6.697-37.119,7.532
	c4.798,5.348,7.001,10.371,4.012,14.078c-9.026,11.175-46.282-12.236-59.313-20.966c-0.303,2.091-0.418,4.203-0.344,6.313
	l-9.972-7.669l0.987-17.646l1.665-29.857l2.092-37.443c-0.66-1.604-1.213-3.249-1.655-4.927c-3.054-10.86-6.762-32.547-9.604-50.733
	c-2.288-14.637-4.006-27.004-4.371-29.636c-0.048-0.344-0.073-0.521-0.073-0.521l54.043-23.888c3.923,9.1,23.402,11.33,23.402,11.33
	c15.168-1.045,24.687-7.955,25.747-8.566L509.904,262.754z"/>
<path fill="#FFFFFF" d="M547.961,390.576c-3.678,3.987-12.791,9.992-23.838,16.493c-4.109,2.415-8.484,4.905-12.947,7.381
	c-10.649,5.906-21.801,11.758-31.002,16.487c-11.97,6.152-20.646,10.399-20.646,10.399s-0.747-3.741-1.949-8.529
	c-1.61-6.408-4.035-14.691-6.564-18.357c-0.09-0.129-0.177-0.246-0.265-0.364c-0.737-0.968-1.479-1.532-2.21-1.532l36.54-22.649
	l15.79-9.79l-11.376-27.158l-14.269-34.065l8.612-27.401l8.655-27.546h16.222c0,0,5.372,11.725,12.241,28.075
	c1.026,2.445,2.088,4.994,3.167,7.624C538.253,334.013,555.869,382.009,547.961,390.576z"/>
<path fill="#FFFFFF" d="M384.7,414.125c-1.333-0.005-2.664,0.103-3.977,0.325c-11.288,1.938-14.617,12.156-15.565,19.001
	c-0.303,2.091-0.418,4.204-0.344,6.314l-9.972-7.67l-3.632-2.793c-8.745-3.051-16.537-8.465-23.294-14.853
	c-5.86-5.64-11.118-11.876-15.687-18.604c-4.55-6.632-8.608-13.592-12.138-20.817c-1.994-4.085-2.071-8.842-0.211-12.987
	l12.349-27.52l18.049-40.223c0.132-0.957,0.278-1.894,0.437-2.808c3.581-20.524,13.17-29.637,13.17-29.637h7.325l4.9,29.637
	l6.088,36.819l-4.267,13.915l-9.859,32.135l9.421,10.231L384.7,414.125z"/>
<path fill="#2F2E41" d="M376.859,445.974c0.551-2.397,0.918-3.752,0.918-3.752l-0.284-1.949l-2.932-19.905l-1.232-8.396
	c10.675-4.448,13.345-24.913,13.345-24.913l0.404-0.241l1.821-1.089v-0.006l6.54-3.924l0.132-0.079l2.642,1.759l5.366,3.579
	c18.775,13.808,37.896,13.561,49.694,11.387c7.213-1.33,11.695-3.378,11.695-3.378l12.943-4.315l0.403-0.134l0.397,0.059
	l7.591,1.149l0.137,0.023l0.63,0.095l-1.759,12.152l-2.548,17.66c6.73,3.565,12.716,10.262,17.95,18.516
	c1.159,1.826,2.281,3.727,3.367,5.701c1.414,2.552,2.765,5.209,4.052,7.93c0.156,0.323,0.31,0.652,0.461,0.98
	c0.496,1.065,0.987,2.141,1.464,3.221H374.502c0.176-1.085,0.354-2.121,0.526-3.117c0.009-0.034,0.015-0.068,0.019-0.104
	c0.063-0.333,0.123-0.658,0.177-0.98C375.823,450.663,376.403,447.957,376.859,445.974z"/>
<circle fill="#6C63FF" cx="393.347" cy="385.726" r="4.448"/>
<circle fill="#6C63FF" cx="482.32" cy="390.175" r="4.449"/>
<path fill="#FFB8B8" d="M496.111,389.73c0,0-40.482-7.563-43.152,5.783c-2.668,13.346,44.931,7.563,44.931,7.563L496.111,389.73z"/>
<path fill="#FFB8B8" d="M351.975,427.098l12.456,9.788c0,0,8.897,27.581,22.243,19.574c13.346-8.008-12.456-36.479-12.456-36.479
	l-15.125-5.338L351.975,427.098z"/>
<path fill="#3F3D56" d="M541.613,449.023v2.98c0.002,0.818-0.149,1.63-0.447,2.392c-0.131,0.339-0.29,0.668-0.477,0.981
	c-1.189,1.998-3.345,3.223-5.67,3.221H315.766c-2.327,0.001-4.481-1.223-5.671-3.221c-0.185-0.314-0.344-0.643-0.477-0.981
	c-0.296-0.762-0.448-1.573-0.446-2.392v-2.98c-0.001-3.642,2.949-6.594,6.59-6.595c0.001,0,0.002,0,0.004,0h12.637v-1.39
	c0-0.15,0.122-0.274,0.274-0.274h0.001h6.594c0.152,0,0.275,0.123,0.275,0.273c0,0.001,0,0.001,0,0.001v1.39h4.12v-1.39
	c0-0.15,0.123-0.274,0.274-0.274c0,0,0,0,0.001,0h6.593c0.152,0,0.275,0.123,0.275,0.273c0,0.001,0,0.001,0,0.001v1.39h4.124v-1.39
	c0-0.15,0.124-0.274,0.274-0.274c0.001,0,0.001,0,0.001,0h6.594c0.151,0,0.275,0.123,0.275,0.273c0,0.001,0,0.001,0,0.001v1.39h4.12
	v-1.39c0-0.15,0.123-0.274,0.274-0.274c0,0,0,0,0.001,0h6.593c0.152,0,0.275,0.123,0.275,0.273c0,0.001,0,0.001,0,0.001v1.39h4.121
	v-1.39c0-0.15,0.122-0.274,0.274-0.274h0h6.594c0.151,0,0.274,0.123,0.275,0.273c0,0.001,0,0.001,0,0.001v1.39h4.124v-1.39
	c0-0.15,0.122-0.274,0.274-0.274c0,0,0,0,0,0h6.594c0.151,0,0.274,0.123,0.274,0.273c0,0.001,0,0.001,0,0.001v1.39h4.12v-1.39
	c0-0.15,0.123-0.274,0.275-0.274h0.001h51.651c0.152,0,0.276,0.123,0.276,0.273c0,0.001,0,0.001,0,0.001v1.39h4.124v-1.39
	c-0.001-0.15,0.122-0.274,0.274-0.274l0,0h6.594c0.151,0.001,0.273,0.124,0.275,0.274v1.39h4.12v-1.39
	c0-0.15,0.122-0.274,0.274-0.274c0,0,0,0,0.001,0h6.594c0.151,0,0.274,0.123,0.274,0.273c0,0.001,0,0.001,0,0.001v1.39h4.12v-1.39
	c0-0.15,0.123-0.274,0.274-0.274h0.001h6.594c0.152,0,0.275,0.123,0.275,0.273c0,0.001,0,0.001,0,0.001v1.39h4.124v-1.39
	c0-0.15,0.122-0.274,0.273-0.274h0.001h6.595c0.15,0.001,0.271,0.124,0.27,0.274v1.39h4.124v-1.39c0-0.15,0.123-0.274,0.274-0.274
	h0.001h6.594c0.152,0,0.275,0.123,0.275,0.273c0,0.001,0,0.001,0,0.001v1.39h4.121v-1.39c-0.002-0.15,0.122-0.274,0.272-0.274
	c0.001,0,0.001,0,0.002,0h6.594c0.151,0,0.274,0.123,0.274,0.273c0,0.001,0,0.001,0,0.001v1.39h19.233
	c3.641-0.001,6.593,2.95,6.593,6.591C541.613,449.02,541.613,449.021,541.613,449.023z"/>
<rect x="245.469" y="454.392" fill="#3F3D56" width="359.899" height="0.982"/>
<path fill="#3F3D56" d="M523.959,323.508h-81.724v-1.684H405.18v1.684h-82.061c-3.051,0-5.527,2.475-5.527,5.529v111.902
	c0,3.053,2.475,5.527,5.527,5.527h200.84c3.052,0,5.527-2.474,5.527-5.527V329.036C529.486,325.982,527.011,323.508,523.959,323.508
	L523.959,323.508z"/>
<circle fill="none" stroke="#FFFFFF" stroke-width="2" stroke-miterlimit="10" cx="423.699" cy="362.575" r="12.274"/>
<circle fill="#FFFFFF" cx="419.772" cy="366.994" r="12.274"/>
<rect x="178.974" y="472.135" fill="#3F3D56" width="92.797" height="1.11"/>
<rect x="584.045" y="472.135" fill="#3F3D56" width="92.797" height="1.11"/>
<path fill="#3F3D56" d="M233.042,436.373c-9.776,15.962-6.414,35.813-6.414,35.813s19.214-6.023,28.99-21.984
	c9.775-15.96,6.414-35.813,6.414-35.813S242.819,420.412,233.042,436.373z"/>
<path bx:origin="0.415 0.506" fill="#3B5FB6" d="M227.029,471.721l-0.563-0.009c-0.203-0.002-20.116-1.519-33.666-13.973
	c-13.549-12.456-15.323-31.448-15.342-31.648l0.036-0.253l-0.134-0.284c0.204,0.003,20.535,0.451,34.083,12.906
	c13.55,12.454,15.518,32.503,15.537,32.703L227.029,471.721z"/>
<path fill="#3F3D56" d="M227.02,472.823l-0.537-0.169c-0.194-0.061-19.503-6.263-29.263-22.194
	c-9.76-15.935-6.512-35.953-6.479-36.153l0.094-0.555l0.537,0.169c0.194,0.06,19.503,6.263,29.262,22.196l0,0
	c9.76,15.933,6.512,35.951,6.479,36.15L227.02,472.823z M191.628,415.044c-0.444,3.36-2.216,20.787,6.429,34.902
	c8.646,14.114,24.976,20.454,28.17,21.585c0.444-3.358,2.216-20.786-6.43-34.901l0,0
	C211.153,422.514,194.822,416.175,191.628,415.044L191.628,415.044z"/>
<circle fill="#3F3D56" cx="227.238" cy="409.669" r="10.802"/>
<polygon bx:origin="0.172 0.429" fill="#3F3D56" points="320.683,265.669 258.715,203.213 229.461,203.213 229.461,202.231 
	259.126,202.231 259.27,202.377 321.38,264.979 ">
</polygon>
<path fill="#3F3D56" d="M651.791,438.992h-0.981v-7.366c0.001-0.813,0.66-1.472,1.474-1.473h2.456
	c0.271-0.001,0.489-0.22,0.489-0.491v-4.91c0-0.271-0.219-0.49-0.489-0.49h-2.456c-0.813-0.001-1.473-0.66-1.474-1.474v-2.455
	c0-0.271-0.22-0.49-0.49-0.49h-4.419c-0.813-0.001-1.473-0.66-1.474-1.474v-0.491c0-0.271-0.22-0.49-0.491-0.49H626.26
	c-0.271,0-0.49,0.219-0.491,0.49v0.491c0,0.813-0.66,1.473-1.473,1.474h-4.419c-0.271,0-0.49,0.22-0.49,0.49v2.455
	c-0.001,0.813-0.66,1.473-1.475,1.474h-2.455c-0.271,0-0.489,0.22-0.489,0.49v4.91c0,0.271,0.218,0.49,0.489,0.491h2.946
	c0.813,0.001,1.472,0.66,1.474,1.473v7.366h-0.982v-7.366c0-0.271-0.22-0.49-0.49-0.49h-2.946c-0.813-0.001-1.473-0.66-1.474-1.474
	v-4.91c0.001-0.813,0.66-1.472,1.474-1.473h2.455c0.271,0,0.491-0.22,0.491-0.491v-2.455c0-0.813,0.659-1.473,1.474-1.473h4.419
	c0.271,0,0.491-0.22,0.491-0.491v-0.491c0.001-0.813,0.659-1.472,1.473-1.473h17.676c0.813,0.001,1.472,0.659,1.473,1.473v0.491
	c0.001,0.271,0.221,0.491,0.492,0.491h4.419c0.813,0,1.472,0.66,1.473,1.473v2.455c0,0.271,0.22,0.491,0.491,0.491h2.456
	c0.813,0.001,1.471,0.659,1.472,1.473v4.91c-0.001,0.813-0.659,1.473-1.472,1.474h-2.456c-0.271,0-0.491,0.22-0.491,0.49v7.366
	H651.791z"/>
<path fill="#3F3D56" d="M650.32,473.361h-29.951c-0.813,0-1.473-0.659-1.474-1.473v-21.113h0.982v21.113
	c0,0.271,0.219,0.49,0.49,0.49h29.951c0.271,0,0.49-0.219,0.49-0.49v-21.113h0.982v21.113
	C651.791,472.703,651.133,473.361,650.32,473.361z"/>
<path fill="#3B5FB6" d="M616.666,438.607h36.825c0.542,0,0.981,0.439,0.981,0.981v9.82c0,0.543-0.44,0.981-0.981,0.981h-36.825
	c-0.542,0-0.981-0.439-0.981-0.981v-9.82C615.685,439.047,616.124,438.607,616.666,438.607z"/>
<path fill="#3F3D56" d="M653.511,451.266h-36.825c-0.813-0.001-1.472-0.659-1.473-1.473v-9.82c0.001-0.813,0.659-1.473,1.473-1.474
	h36.825c0.813,0.001,1.473,0.66,1.474,1.474v9.82C654.983,450.608,654.323,451.265,653.511,451.266z M616.686,439.483
	c-0.271,0-0.49,0.219-0.49,0.49v9.821c0,0.271,0.219,0.49,0.49,0.49h36.825c0.271,0,0.49-0.22,0.49-0.49v-9.821
	c0-0.271-0.219-0.49-0.49-0.49H616.686z"/>
<path fill="#3B5FB6" d="M634.115,412.969L634.115,412.969c-1.305-8.793-1.649-17.7-1.028-26.569l1.028-14.674l0,0
	C628.449,383.002,629.731,397.843,634.115,412.969L634.115,412.969z"/>
<path fill="#3B5FB6" d="M638.534,415.425L638.534,415.425c-0.628-5.247-0.793-10.539-0.494-15.814l0.494-8.735l0,0
	C635.809,397.587,636.425,406.42,638.534,415.425z"/>
<g transform="matrix(0.273677, 0, 0, 0.273677, 389.576813, -57.203465)">
	<title>Web1</title>
	<rect x="-1027.136" y="825.135" fill="#E6E6E6" width="429.492" height="275.068"/>
	<rect x="-1014.855" y="859.637" fill="#FFFFFF" width="404.931" height="224.293"/>
	<rect x="-1027.32" y="824.892" fill="#3D3D3D" width="429.492" height="18.247"/>
	<circle fill="#FFFFFF" cx="-1013.762" cy="834.221" r="3.384"/>
	<circle fill="#FFFFFF" cx="-1000.923" cy="834.221" r="3.384"/>
	<circle fill="#FFFFFF" cx="-988.083" cy="834.221" r="3.384"/>
	<rect x="-978.063" y="882.907" fill="#E6E6E6" width="104.05" height="177.75"/>
	<rect x="-856.052" y="882.907" fill="#3B5FB6" width="86.71" height="48.929"/>
	<rect x="-856.052" y="945.46" fill="#E6E6E6" width="86.71" height="52.645"/>
	<rect x="-856.052" y="1011.728" fill="#E6E6E6" width="86.71" height="48.929"/>
	<rect x="-750.767" y="882.907" fill="#E6E6E6" width="104.05" height="77.461"/>
	<rect x="-750.767" y="983.196" fill="#3B5FB6" width="104.05" height="77.461"/>
</g>
<g transform="matrix(0.73606, 0, 0, 0.73606, 1161.446411, -258.150421)">
	<title>Web 2</title>
	<rect x="-726.78" y="558.831" width="186.514" height="6.587"/>
	<rect x="-726.733" y="565.677" fill="#FFFFFF" width="186.325" height="114.564"/>
	<circle fill="#3B5FB6" cx="-700.149" cy="624.305" r="18.003"/>
	<path fill="#3F3D56" d="M-551.462,600.923h-100.879v-21.109h100.879V600.923z M-651.896,600.479h99.991v-20.22h-99.991V600.479z"/>
	<rect x="-659.228" y="584.037" fill="#3B5FB6" width="100.434" height="20.664"/>
	<circle fill="#7579E7" cx="-722.719" cy="562.76" r="1.556"/>
	<circle fill="#7579E7" cx="-717.387" cy="562.76" r="1.556"/>
	<circle fill="#7579E7" cx="-712.054" cy="562.76" r="1.556"/>
	<path fill="#3F3D56" d="M-540.069,680.306h-187.093V558.539h187.093V680.306z M-726.718,679.861h186.204V558.983h-186.204V679.861z
		"/>
	<rect x="-726.941" y="565.28" fill="#3F3D56" width="186.65" height="0.444"/>
	<path fill="#3F3D56" d="M-722.275,563.871c-1.368,0-2.224-1.48-1.539-2.667c0.683-1.184,2.395-1.184,3.078,0
		c0.157,0.271,0.239,0.578,0.239,0.89C-720.498,563.075-721.293,563.87-722.275,563.871z M-722.275,560.761
		c-1.027,0-1.668,1.111-1.154,1.999c0.512,0.889,1.796,0.889,2.309,0c0.118-0.203,0.179-0.433,0.179-0.667
		C-720.943,561.358-721.54,560.761-722.275,560.761z"/>
	<path fill="#3F3D56" d="M-716.943,563.871c-1.368,0-2.224-1.48-1.539-2.667c0.685-1.184,2.395-1.184,3.079,0
		c0.157,0.271,0.237,0.578,0.237,0.89C-715.166,563.075-715.959,563.87-716.943,563.871z M-716.943,560.761
		c-1.024,0-1.666,1.111-1.154,1.999c0.513,0.889,1.796,0.889,2.31,0c0.117-0.203,0.178-0.433,0.178-0.667
		C-715.611,561.358-716.206,560.761-716.943,560.761z"/>
	<path fill="#3F3D56" d="M-711.609,563.871c-1.368,0-2.224-1.48-1.539-2.667c0.683-1.184,2.393-1.184,3.079,0
		c0.155,0.271,0.237,0.578,0.237,0.89C-709.833,563.075-710.627,563.87-711.609,563.871z M-711.609,560.761
		c-1.024,0-1.668,1.111-1.154,1.999c0.513,0.889,1.795,0.889,2.31,0c0.115-0.203,0.178-0.433,0.178-0.667
		C-710.277,561.358-710.873,560.761-711.609,560.761z"/>
	<rect x="-668.563" y="565.501" fill="#3F3D56" width="0.446" height="114.755"/>
	<rect x="-647.342" y="621.921" fill="#455EDE" width="32.663" height="4.444"/>
	<rect x="-596.013" y="621.921" fill="#455EDE" width="32.663" height="4.444"/>
	<path fill="#3F3D56" d="M-612.678,624.366h-33.109v-4.889h33.109V624.366z M-645.342,623.922h32.22v-3.999h-32.22V623.922z"/>
	<rect x="-647.342" y="656.363" fill="#455EDE" width="32.663" height="4.444"/>
	<path fill="#3F3D56" d="M-612.678,658.807h-33.109v-4.888h33.109V658.807z M-645.342,658.363h32.22v-3.999h-32.22V658.363z"/>
	<rect x="-647.23" y="638.698" fill="#455EDE" width="83.992" height="4.444"/>
	<path fill="#3F3D56" d="M-561.237,641.587h-84.437v-4.888h84.437V641.587z M-645.231,641.142h83.55v-3.999h-83.55V641.142z"/>
	<path fill="#3F3D56" d="M-561.347,624.366h-33.109v-4.889h33.109V624.366z M-594.013,623.922h32.22v-3.999h-32.22V623.922z"/>
	<path fill="#3F3D56" d="M-697.101,637.597c-14.071,0-22.866-15.232-15.832-27.417c7.038-12.188,24.624-12.188,31.661,0
		c1.604,2.777,2.448,5.93,2.448,9.138C-678.835,629.409-687.011,637.586-697.101,637.597z M-697.101,601.593
		c-13.644,0-22.172,14.772-15.35,26.589c6.821,11.817,23.879,11.817,30.701,0c1.555-2.695,2.375-5.752,2.375-8.864
		C-679.388,609.533-687.316,601.605-697.101,601.593z"/>
	<polygon fill="#3F3D56" points="-865.141,705.552 -780.426,620.7 -740.679,620.7 -740.671,619.365 -780.974,619.365 
		-781.17,619.564 -866.083,704.614 	"/>
</g>
</svg>
