<?xml version="1.0" encoding="utf-8"?>
<!-- Generator: Adobe Illustrator 16.0.3, SVG Export Plug-In . SVG Version: 6.00 Build 0)  -->
<!DOCTYPE svg PUBLIC "-//W3C//DTD SVG 1.1//EN" "http://www.w3.org/Graphics/SVG/1.1/DTD/svg11.dtd">
<svg version="1.1" id="Capa_1" xmlns="http://www.w3.org/2000/svg" xmlns:xlink="http://www.w3.org/1999/xlink" x="0px" y="0px"
	 width="841.891px" height="595.281px" viewBox="0 0 841.891 595.281" enable-background="new 0 0 841.891 595.281"
	 xml:space="preserve">
<path fill="#3F95E6" d="M739.78,379.586c-0.822,1.762-1.643,3.504-2.459,5.221c-1.277,2.668-2.536,5.283-3.779,7.846
	c-0.554,1.138-1.107,2.252-1.647,3.367c-6.095,12.397-11.786,23.363-16.622,32.382c-8.937,16.645-26.279,27.112-45.236,27.31
	l-107.509,1.165h-1.133l-9.218,0.097l-7.883,0.086l-24.176,0.262h-0.977l-12.307,0.133h-0.376l-75.856,0.82l-67.708,0.703
	l-7.877,0.086l-48.917,0.53h-0.056l-31.724,0.339h-0.341l-100.313,1.079l-30.009,0.324c-2.555,0.028-5.11-0.097-7.65-0.381l0,0
	c-0.864-0.099-1.73-0.212-2.587-0.347c-13.994-2.148-26.828-9.008-36.361-19.432c-12.909-14.136-22.303-30.627-28.613-48.523
	c-0.911-2.581-1.762-5.196-2.552-7.846c-21.841-73.494,4.787-168.313,52.709-231.764c2.01-2.654,4.051-5.24,6.127-7.764l0.049-0.056
	c14.737-18.007,31.262-33.052,48.866-43.75c31.192-18.99,65.752-24.338,99.745-8.396c28.76,13.491,55.617,19.835,81.648,21.557
	c2.629,0.168,5.26,0.295,7.875,0.374c59.712,1.869,115.675-19.546,181.392-33.372c2.614-0.55,5.239-1.092,7.884-1.608
	c46.881-9.287,98.886-14.184,160.732-3.889c6.426,1.046,12.769,2.555,18.971,4.517c2.729,0.874,5.356,1.815,7.885,2.821
	c29.521,11.955,45.619,34.041,52.46,61.716c0.647,2.571,1.209,5.184,1.681,7.841C806.051,219.607,770.526,314.037,739.78,379.586z"
	/>
<rect x="174.928" y="514.434" fill="#3F3D56" width="367.738" height="1.562"/>
<path fill="#FFB9B9" d="M369.947,299.591c0,0-7.804,35.119,7.804,28.877c15.608-6.244,6.243-30.437,6.243-30.437L369.947,299.591z"
	/>
<path fill="#FFB9B9" d="M515.888,311.297c0,0,18.729,22.633,7.022,27.314c-11.706,4.683-17.949-21.07-16.388-23.413
	C508.082,312.857,515.888,311.297,515.888,311.297z"/>
<circle fill="#FFB9B9" cx="471.403" cy="127.894" r="23.413"/>
<polygon fill="#FFB9B9" points="453.843,136.87 450.721,161.064 476.475,170.428 481.938,143.113 "/>
<path fill="#FFFFFF" d="M468.281,160.673c0,0-13.229-6.531-15.98-11.851l-5.872,5.608c0,0-42.143-3.902-48.387,17.169
	c-6.244,21.072-0.782,97.555-0.782,97.555s-8.584,34.338-6.243,35.12c2.341,0.781,31.219,14.828,71.8,7.024
	c0,0,17.951-3.123,21.072-0.781c3.123,2.341-1.562-37.461-1.562-37.461s31.219-70.239,25.755-78.824
	c-5.464-8.585-29.655-26.535-29.655-26.535l1.56-8.584C479.988,159.112,469.061,163.795,468.281,160.673z"/>
<path fill="#FFFFFF" d="M404.285,166.135c0,0-14.048,7.025-16.389,17.951c-2.341,10.926-24.193,101.457-21.852,106.919
	c2.341,5.463,1.561,12.486,1.561,12.486l20.291-2.342c0,0-3.902-5.462-1.561-7.804c2.342-2.341,4.683-10.145,3.123-13.267
	c-1.561-3.122-3.123,2.341,5.462-7.804C403.505,262.13,423.016,169.258,404.285,166.135z"/>
<path fill="#FFFFFF" d="M503.401,192.671c0,0,6.634,0.39,8.195,11.315c1.561,10.926,4.293,78.434,4.293,78.434
	s10.145,21.852,6.242,24.975c-3.901,3.121-1.561,7.803-1.561,7.803l-14.047,3.902l-30.438-47.606L503.401,192.671z"/>
<path fill="#2F2E41" d="M393.359,301.15c0,0-4.682,0.781-4.682,17.951s-8.585,70.238-3.122,78.824
	c5.462,8.584,6.243,85.848,6.243,85.848s14.829,6.244,27.315-14.048l1.561-10.927l3.122-53.068l12.486-66.337l17.17,73.361
	c0,0-2.341,88.189,6.243,88.189c8.585,0,24.974-7.024,24.974-7.024s3.901-7.805,2.342-11.708c-1.561-3.901-3.122-3.122-1.561-6.243
	c1.561-3.122,3.902-84.287,3.902-84.287s-3.123-83.507-7.025-85.848C478.426,303.492,393.359,301.15,393.359,301.15z"/>
<path fill="#2F2E41" d="M393.359,480.651l-12.486,13.269c0,0-22.633,21.07-3.122,21.853c19.51,0.779,30.437-12.487,30.437-14.049
	c0-1.561,0.782-7.023,6.244-7.023c5.463,0,18.731-13.268,15.609-18.73c-3.121-5.462-12.486-7.804-12.486-7.804L393.359,480.651z"/>
<path fill="#2F2E41" d="M460.477,497.821c0,0-9.365,18.729-3.901,22.633c5.462,3.903,7.024,5.463,7.024,5.463
	s4.682-0.78,3.901,6.243c-0.782,7.025,28.096,10.926,29.655,5.463c1.562-5.464,0.782-16.389-2.341-19.511
	c-3.122-3.123-12.487-24.974-12.487-24.974S472.183,481.432,460.477,497.821z"/>
<g transform="matrix(-0.497554, -0.100096, -0.100096, 0.497554, 948.543457, -0.05243)">
	<title>Cabello</title>
	<path fill="#2F2E41" d="M844.841,399.934c-1.198,3.595,45.368,28.432,43.388,26.606c-2.013-3.889-4.757-31.644-1.634-31.644
		L844.841,399.934z"/>
	<path fill="#2F2E41" d="M837.011,384.252L825.7,373.82l1.506,13.616l-21.781-5.127l23.233,15.402"/>
	<path fill="#2F2E41" d="M460.421,394.075"/>
	<path fill="#2F2E41" d="M880.478,407.079c7.048-2.606,24.229,18.708,24.21,23.827c7.116-9.175,11.228-33.302,11.567-32.531
		L880.478,407.079z"/>
	<path fill="#2F2E41" d="M834.485,401.724c-3.877,0.813-5.848,39.909-4.628,42.33c-6.549-4.93-16.695-17.569-14.033-28.4
		L834.485,401.724z"/>
	<path fill="#2F2E41" d="M850.977,403.553c-6.045,2.284-3.454,31.092-1.213,30.244c-4.47,3.195-26.293-25.773-26.235-32.386
		L850.977,403.553z"/>
	<path fill="#2F2E41" d="M832.407,390.444c1.164-39.047,40.653-29.489,45.406-47.805c4.733,10.55,16.324,35.027-4.407,35.631
		c0,0-45.587,25.84-46.101,25.689C826.788,403.806,832.45,392.189,832.407,390.444z"/>
	<path fill="#2F2E41" d="M460.421,394.075"/>
	<path fill="#2F2E41" d="M921.031,416.021c-0.001,3.37,13.933,7.329,17.438,3.711c-12.937-8.679-6.213-35.761-34.711-33.881
		C892.455,386.39,899.858,389.73,921.031,416.021z"/>
	<path fill="#2F2E41" d="M899.454,391.425c4.128,11.696,35.191-7.117,38.377-13.938c-19.432,8.735-15.871-17.864-59.236-13.595
		C868.458,365.252,874.299,378.602,899.454,391.425z"/>
	<path fill="#2F2E41" d="M885.555,380.942c6.106,7.501,29.347-19.726,29.891-25.572c-13.994,12.388-29.487-1.301-45.425,6.946
		C862.936,365.98,863.714,378.145,885.555,380.942z"/>
	<path fill="#2F2E41" d="M833.021,393.33c-21.417-4.402-21.063,19.071-31.625,19.373c5.165,4.032,17.079,13.728,19.955,2.135
		c0,0,19.682-22.321,19.662-22.63C840.992,391.899,833.968,393.58,833.021,393.33z"/>
	<path fill="#2F2E41" d="M909.349,405.598c3.467,1.461,7.442,32.492,6.503,34.974c5.495-4.464,12.428-17.432,9.459-29.728
		L909.349,405.598z"/>
	<path fill="#2F2E41" d="M841.749,382.709c-3.009,0.916-6.276,1.832-9.809,2.745c-5.573,1.447-5.835,7.199-0.783,17.259
		c0.797,1.589-0.9,2.111-5.099,1.568c-3.017-0.39-3.149,2.617-0.394,9.021c1.513,3.515,5.305,4.04,11.376,1.569
		c5.554-2.26,10.523-5.789,14.902-10.591c3.795-4.151,9.414-4.021,16.867,0.394c8.43,4.993,18.366,6.3,29.812,3.922
		c6.08-1.264,12.225-0.349,18.431,2.746c1.22,0.607,2.135,1.914,2.748,3.922c1.195,3.925-3.895,2.085,1.969-6.023
		c3.121-4.314,1.645-9.404-5.921-14.766c-4.32-3.062,0.545-9.206-5.07-9.805c-5.83-0.622-8.837-1.929-12.16-8.628
		c-4.946-9.969-19.721-7.876-37.261,2.353C855.387,381.877,848.85,383.316,841.749,382.709z"/>
</g>
<rect x="586.185" y="374.363" fill="#3F3D56" width="124.98" height="1.496"/>
<rect x="213.873" y="489.595" fill="#FFFFFF" width="30.125" height="30.127"/>
<path fill="#3F3D56" d="M240.035,515.758h-31.711v-31.713h31.711V515.758z M209.908,514.173h28.541v-28.541h-28.541V514.173z"/>
<rect x="260.761" y="229.372" transform="matrix(0.9327 -0.3607 0.3607 0.9327 -68.05 113.844)" fill="#FFFFFF" width="20.443" height="19.734"/>
<path fill="#3F3D56" d="M280.632,243.315l-20.068,7.761l-7.493-19.374l20.069-7.761L280.632,243.315z M261.192,249.719l18.062-6.986
	l-6.743-17.436l-18.062,6.985L261.192,249.719z"/>
<rect x="604.444" y="434.403" transform="matrix(0.3251 0.9457 -0.9457 0.3251 834.9864 -281.4351)" fill="#FFFFFF" width="20.442" height="19.735"/>
<path fill="#3F3D56" d="M610.209,453.763l-6.996-20.349l19.645-6.753l6.995,20.349L610.209,453.763z M604.545,434.094l6.296,18.313
	l17.68-6.078l-6.296-18.314L604.545,434.094z"/>
<path fill="#3B5FB6" d="M202.264,354.638c11.178,0.24,20.069,8.34,20.069,8.34s-9.23,7.712-20.408,7.473
	c-11.178-0.241-20.071-8.342-20.071-8.342S191.086,354.398,202.264,354.638z"/>
<path fill="#3B5FB6" d="M146.066,316.483c10.099,4.798,21.679,1.544,21.679,1.544s-4.793-11.032-14.892-15.83
	c-10.098-4.798-21.678-1.545-21.678-1.545S135.967,311.685,146.066,316.483z"/>
<path fill="#3F3D56" d="M147.093,311.716c11.134-1.019,20.879,6.032,20.879,6.032s-8.307,8.699-19.441,9.717
	c-11.134,1.019-20.879-6.032-20.879-6.032S135.959,312.732,147.093,311.716z"/>
<path fill="#3F3D56" d="M187.907,313.642c-1.067,11.129,5.938,20.907,5.938,20.907s8.738-8.267,9.805-19.397
	c1.067-11.129-5.939-20.906-5.939-20.906S188.973,302.513,187.907,313.642z"/>
<path fill="#3F3D56" d="M240.342,381.898c-5.84,9.535-3.83,21.395-3.83,21.395s11.477-3.599,17.317-13.133
	s3.831-21.393,3.831-21.393S246.183,372.365,240.342,381.898z"/>
<path fill="#3F3D56" d="M223.4,485.56l0.852-0.575c-3-4.353-4.638-9.5-4.705-14.787c0.024-7.731,3.821-14.885,7.495-21.8
	c0.683-1.285,1.362-2.566,2.016-3.844c2.744-5.215,4.931-10.705,6.524-16.379c5.698-21.174,0.088-46.156-15.005-66.824
	c-11.974-16.398-29.823-30.737-54.567-43.836l-0.481,0.908c24.604,13.023,42.338,27.264,54.218,43.531
	c14.913,20.421,20.461,45.076,14.844,65.954c-1.575,5.604-3.736,11.025-6.447,16.177c-0.652,1.273-1.329,2.549-2.008,3.828
	c-3.731,7.028-7.591,14.295-7.616,22.281C218.587,475.687,220.285,481.036,223.4,485.56z"/>
<circle fill="#3F3D56" cx="117.233" cy="309.107" r="9.758"/>
<polygon fill="#2F2E41" points="648.426,366.743 522.827,321.633 545.251,259.2 623.454,240.021 670.851,304.31 "/>
<path fill="#FFFFFF" d="M633.21,354.363l-93.86-35.779c24.366-32.638,35.263-55.661,35.271-91.89l93.86,35.779
	C646.675,293.447,637.557,316.732,633.21,354.363z"/>
<rect x="589.839" y="258.024" transform="matrix(0.9344 0.3562 -0.3562 0.9344 132.7355 -202.3678)" fill="#3F3D56" width="52.039" height="2.42"/>
<rect x="586.397" y="267.061" transform="matrix(0.9344 0.3562 -0.3562 0.9344 135.7289 -200.5488)" fill="#3F3D56" width="52.039" height="2.421"/>
<rect x="582.942" y="276.118" transform="matrix(0.9344 0.3562 -0.3562 0.9344 138.7282 -198.7241)" fill="#3F3D56" width="52.039" height="2.42"/>
<rect x="579.494" y="285.162" transform="matrix(0.9344 0.3562 -0.3562 0.9344 141.7235 -196.9027)" fill="#3F3D56" width="52.039" height="2.42"/>
<rect x="576.052" y="294.202" transform="matrix(0.9344 0.3562 -0.3562 0.9344 144.7215 -195.0866)" fill="#3F3D56" width="52.038" height="2.421"/>
<rect x="572.596" y="303.258" transform="matrix(0.9344 0.3562 -0.3562 0.9344 147.7159 -193.2574)" fill="#3F3D56" width="52.038" height="2.42"/>
<rect x="569.148" y="312.303" transform="matrix(0.9344 0.3562 -0.3562 0.9344 150.7083 -191.4334)" fill="#3F3D56" width="52.039" height="2.42"/>
<rect x="565.703" y="321.345" transform="matrix(0.9344 0.3562 -0.3562 0.9344 153.7066 -189.6161)" fill="#3F3D56" width="52.038" height="2.421"/>
<polygon fill="#3F3D56" points="645.524,374.822 519.926,329.713 545.251,259.2 598.29,308.931 670.851,304.31 "/>
<polygon fill="#3B5FB6" points="581.706,352.604 519.079,330.111 534.339,287.622 535.584,288.07 520.773,329.312 582.153,351.359 
	"/>
<rect x="539.205" y="303.91" transform="matrix(0.9411 0.338 -0.338 0.9411 136.3459 -167.4299)" fill="#3B5FB6" width="19.508" height="7.804"/>
<polygon fill="#3F3D56" points="351.83,514.991 253.528,514.938 254.299,459.751 303.153,481.709 352.602,461.127 "/>
<rect x="261.314" y="489.851" transform="matrix(0.9999 0.014 -0.014 0.9999 6.9227 -3.7098)" fill="#3B5FB6" width="14.373" height="5.748"/>
<polygon fill="#3B5FB6" points="352.931,461.05 303.243,486.382 254.04,461.05 254.04,459.59 352.931,459.59 "/>
<ellipse transform="matrix(-0.3562 0.9344 -0.9344 -0.3562 1075.2372 -248.2474)" fill="#3B5FB6" cx="623.136" cy="246.279" rx="5.971" ry="16.531"/>
<path fill="#3B5FB6" d="M652.078,158.195c-13.252-4.12-27.335,3.282-31.456,16.534c-4.121,13.251,7.108,61.765,7.108,61.765
	s36.761-33.591,40.881-46.844C672.731,176.4,665.329,162.316,652.078,158.195z M641.082,193.557
	c-6.277-1.953-9.784-8.624-7.833-14.901c1.953-6.277,8.623-9.784,14.9-7.832c6.277,1.952,9.784,8.623,7.833,14.9
	C654.03,192.002,647.36,195.508,641.082,193.557L641.082,193.557z"/>
</svg>
