<?xml version="1.0" encoding="utf-8"?>
<!-- Generator: Adobe Illustrator 16.0.3, SVG Export Plug-In . SVG Version: 6.00 Build 0)  -->
<!DOCTYPE svg PUBLIC "-//W3C//DTD SVG 1.1//EN" "http://www.w3.org/Graphics/SVG/1.1/DTD/svg11.dtd">
<svg version="1.1" id="Capa_1" xmlns:bx="https://boxy-svg.com"
	 xmlns="http://www.w3.org/2000/svg" xmlns:xlink="http://www.w3.org/1999/xlink" x="0px" y="0px" width="841.891px"
	 height="595.281px" viewBox="0 0 841.891 595.281" enable-background="new 0 0 841.891 595.281" xml:space="preserve">
<rect x="117.201" y="31.106" fill="#3F95E6" width="581.5" height="315.251"/>
<g transform="matrix(0.995435, 0, 0, 0.995435, -173.980835, -33.160118)">
	<title>Responsive</title>
	<path id="f4300551-56ef-4356-8f30-d0080b223343" fill="#3F3D56" d="M592.316,181.317c-1.897,0.03-3.048,2.105-2.073,3.73
		c0.438,0.732,1.222,1.184,2.073,1.198h61.793c1.898,0.034,3.119-1.998,2.198-3.659c-0.428-0.771-1.234-1.256-2.116-1.269
		c-0.026,0-0.056,0-0.081,0H592.316z"/>
	<path fill="#FFFFFF" d="M668.123,180.631c-0.19,0.189-0.19,0.496,0,0.686l2.082,2.08h-5.134c-0.373,0-0.608,0.404-0.419,0.728
		c0.084,0.151,0.246,0.241,0.419,0.241h5.134l-2.082,2.082c-0.266,0.264-0.144,0.716,0.216,0.811
		c0.168,0.044,0.346-0.003,0.47-0.124l2.91-2.911c0.188-0.189,0.188-0.497,0-0.685l-2.91-2.91
		C668.618,180.443,668.311,180.443,668.123,180.631z"/>
	<path fill="#FFFFFF" d="M578.276,180.631c0.191,0.189,0.191,0.496,0,0.686l-2.081,2.08h5.133c0.373,0,0.608,0.403,0.422,0.726
		c-0.087,0.153-0.248,0.243-0.422,0.243h-5.133l2.081,2.082c0.265,0.264,0.143,0.716-0.217,0.811
		c-0.167,0.044-0.346-0.003-0.466-0.124l-2.91-2.911c-0.19-0.189-0.19-0.497,0-0.685l2.91-2.91
		C577.78,180.443,578.088,180.443,578.276,180.631z"/>
	<g transform="matrix(0.576307, 0, 0, 0.576307, 472.90152, 187.013046)" opacity="0.4">
		<circle fill="#FFFFFF" cx="211.537" cy="-103.237" r="4.595"/>
		<circle fill="#FFFFFF" cx="230.686" cy="-103.237" r="4.595"/>
		<circle fill="#FFFFFF" cx="249.833" cy="-103.237" r="4.595"/>
		<circle fill="#FFFFFF" cx="268.98" cy="-103.237" r="4.595"/>
		<circle fill="#FFFFFF" cx="288.131" cy="-103.237" r="4.595"/>
		<circle fill="#FFFFFF" cx="307.28" cy="-103.237" r="4.595"/>
		<circle fill="#FFFFFF" cx="326.428" cy="-103.237" r="4.595"/>
		<circle fill="#FFFFFF" cx="211.537" cy="-88.684" r="4.596"/>
		<circle fill="#FFFFFF" cx="230.686" cy="-88.684" r="4.596"/>
		<circle fill="#FFFFFF" cx="249.833" cy="-88.684" r="4.596"/>
		<circle fill="#FFFFFF" cx="268.98" cy="-88.684" r="4.596"/>
		<circle fill="#FFFFFF" cx="288.131" cy="-88.684" r="4.596"/>
		<circle fill="#FFFFFF" cx="307.28" cy="-88.684" r="4.596"/>
		<circle fill="#FFFFFF" cx="326.428" cy="-88.684" r="4.596"/>
		<circle fill="#FFFFFF" cx="211.537" cy="-74.131" r="4.595"/>
		<circle fill="#FFFFFF" cx="230.686" cy="-74.131" r="4.595"/>
		<circle fill="#FFFFFF" cx="249.833" cy="-74.131" r="4.595"/>
		<circle fill="#FFFFFF" cx="268.98" cy="-74.131" r="4.595"/>
		<circle fill="#FFFFFF" cx="288.131" cy="-74.131" r="4.595"/>
		<circle fill="#FFFFFF" cx="307.28" cy="-74.131" r="4.595"/>
		<circle fill="#FFFFFF" cx="326.428" cy="-74.131" r="4.595"/>
		<circle fill="#FFFFFF" cx="211.537" cy="-59.578" r="4.596"/>
		<circle fill="#FFFFFF" cx="230.686" cy="-59.578" r="4.596"/>
		<circle fill="#FFFFFF" cx="211.537" cy="-45.026" r="4.596"/>
		<circle fill="#FFFFFF" cx="230.686" cy="-45.026" r="4.596"/>
		<circle fill="#FFFFFF" cx="249.833" cy="-45.026" r="4.596"/>
		<circle fill="#FFFFFF" cx="249.833" cy="-59.578" r="4.596"/>
		<circle fill="#FFFFFF" cx="268.98" cy="-59.578" r="4.596"/>
		<circle fill="#FFFFFF" cx="288.131" cy="-59.578" r="4.596"/>
		<circle fill="#FFFFFF" cx="307.28" cy="-59.578" r="4.596"/>
		<circle fill="#FFFFFF" cx="326.428" cy="-59.578" r="4.596"/>
	</g>
	<path fill="#3F3D56" d="M556.821,262.251c-11.255,0-18.29-12.182-12.663-21.929c5.627-9.747,19.696-9.747,25.322,0
		c1.283,2.222,1.958,4.743,1.958,7.309C571.429,255.703,564.89,262.242,556.821,262.251z M556.821,233.841
		c-10.617,0-17.252,11.493-11.943,20.685c5.308,9.195,18.579,9.195,23.886,0c1.21-2.096,1.848-4.474,1.848-6.896
		C570.6,240.019,564.433,233.85,556.821,233.841z"/>
	<path fill="#FFFFFF" d="M562.423,246.23h-4.202v-4.203c0-1.079-1.167-1.754-2.104-1.215c-0.433,0.25-0.701,0.713-0.701,1.215v4.203
		h-4.203c-1.08,0-1.752,1.167-1.213,2.102c0.25,0.434,0.713,0.701,1.213,0.701h4.203v4.204c0,1.078,1.17,1.753,2.103,1.213
		c0.433-0.25,0.702-0.713,0.702-1.213v-4.204h4.202c1.079,0,1.755-1.168,1.214-2.103C563.389,246.497,562.925,246.23,562.423,246.23
		z"/>
	<g transform="matrix(0.576307, 0, 0, 0.576307, 472.90152, 187.013046)" opacity="0.4">
		<circle fill="#FFFFFF" cx="-290.316" cy="130.054" r="3.613"/>
		<circle fill="#FFFFFF" cx="-290.316" cy="114.999" r="3.613"/>
		<circle fill="#FFFFFF" cx="-290.316" cy="99.945" r="3.614"/>
		<circle fill="#FFFFFF" cx="-290.316" cy="84.889" r="3.614"/>
		<circle fill="#FFFFFF" cx="-290.316" cy="69.834" r="3.613"/>
		<circle fill="#FFFFFF" cx="-290.316" cy="54.778" r="3.613"/>
		<circle fill="#FFFFFF" cx="-290.316" cy="39.724" r="3.612"/>
		<circle fill="#FFFFFF" cx="-278.877" cy="130.054" r="3.613"/>
		<circle fill="#FFFFFF" cx="-278.877" cy="114.999" r="3.613"/>
		<circle fill="#FFFFFF" cx="-278.877" cy="99.945" r="3.614"/>
		<circle fill="#FFFFFF" cx="-278.877" cy="84.889" r="3.614"/>
		<circle fill="#FFFFFF" cx="-278.877" cy="69.834" r="3.613"/>
		<circle fill="#FFFFFF" cx="-278.877" cy="54.778" r="3.613"/>
		<circle fill="#FFFFFF" cx="-278.877" cy="39.724" r="3.612"/>
		<circle fill="#FFFFFF" cx="-267.432" cy="130.054" r="3.613"/>
		<circle fill="#FFFFFF" cx="-267.432" cy="114.999" r="3.613"/>
		<circle fill="#FFFFFF" cx="-267.432" cy="99.945" r="3.614"/>
		<circle fill="#FFFFFF" cx="-267.432" cy="84.889" r="3.614"/>
		<circle fill="#FFFFFF" cx="-267.432" cy="69.834" r="3.613"/>
		<circle fill="#FFFFFF" cx="-267.432" cy="54.778" r="3.613"/>
		<circle fill="#FFFFFF" cx="-267.432" cy="39.724" r="3.612"/>
		<circle fill="#FFFFFF" cx="-255.993" cy="130.054" r="3.613"/>
		<circle fill="#FFFFFF" cx="-255.993" cy="114.999" r="3.613"/>
		<circle fill="#FFFFFF" cx="-244.549" cy="130.054" r="3.613"/>
		<circle fill="#FFFFFF" cx="-244.549" cy="114.999" r="3.613"/>
		<circle fill="#FFFFFF" cx="-244.549" cy="99.945" r="3.614"/>
		<circle fill="#FFFFFF" cx="-255.993" cy="99.945" r="3.614"/>
		<circle fill="#FFFFFF" cx="-255.993" cy="84.889" r="3.614"/>
		<circle fill="#FFFFFF" cx="-255.993" cy="69.834" r="3.613"/>
		<circle fill="#FFFFFF" cx="-255.993" cy="54.778" r="3.613"/>
		<circle fill="#FFFFFF" cx="-255.993" cy="39.724" r="3.612"/>
	</g>
	<path fill="#3F3D56" d="M489.364,120.31H351.035c-1.416,0-2.561,1.148-2.563,2.561v118.286c0.002,1.416,1.149,2.562,2.563,2.562
		h138.329c1.415,0,2.561-1.147,2.562-2.562V122.872C491.926,121.458,490.779,120.311,489.364,120.31z M490.899,241.157
		c-0.001,0.85-0.686,1.537-1.535,1.541H351.035c-0.85-0.001-1.538-0.691-1.537-1.541V122.872c0-0.85,0.687-1.538,1.537-1.54h138.329
		c0.849,0.002,1.534,0.693,1.535,1.54V241.157z"/>
	<path fill="#FFFFFF" d="M382.965,222.69c0,0.18-0.005,0.363-0.015,0.54c-0.418,8.022-9.366,12.581-16.101,8.207
		c-2.802-1.818-4.564-4.87-4.738-8.207c-0.01-0.177-0.015-0.361-0.015-0.54c-0.005-8.035,8.688-13.061,15.645-9.049
		C380.975,215.507,382.966,218.956,382.965,222.69z"/>
	<path fill="#3F3D56" d="M478.616,215.73h-81.99c-1.338,0.002-2.173,1.454-1.502,2.611c0.31,0.536,0.881,0.868,1.502,0.868h81.99
		c1.338-0.003,2.172-1.452,1.502-2.612C479.807,216.062,479.235,215.73,478.616,215.73z"/>
	<path fill="#FFFFFF" d="M431.904,226.167h-35.279c-1.338,0-2.173,1.448-1.505,2.605c0.311,0.539,0.885,0.869,1.505,0.869h35.279
		c1.337,0,2.174-1.448,1.504-2.605C433.1,226.498,432.527,226.167,431.904,226.167z"/>
	<path fill="#FFFFFF" d="M522.226,203.446H383.898c-1.955-0.002-3.541-1.59-3.542-3.545v-60.706c0.001-1.954,1.587-3.54,3.542-3.543
		h138.328c1.957,0.003,3.541,1.588,3.545,3.543v60.706C525.767,201.857,524.183,203.444,522.226,203.446z M383.898,136.898
		c-1.268,0.001-2.296,1.029-2.298,2.297v60.706c0.002,1.269,1.03,2.3,2.298,2.301h138.328c1.269-0.001,2.301-1.031,2.302-2.301
		v-60.706c-0.002-1.268-1.033-2.297-2.302-2.297H383.898L383.898,136.898z"/>
	<path fill="#FFFFFF" d="M412.069,157.795c-1.339,0-2.175,1.449-1.506,2.607c0.311,0.54,0.886,0.87,1.506,0.87h81.986
		c1.339,0,2.176-1.449,1.508-2.607c-0.312-0.54-0.887-0.87-1.508-0.87H412.069z"/>
	<path fill="#FFFFFF" d="M412.069,167.872c-1.339,0-2.175,1.449-1.506,2.608c0.311,0.539,0.886,0.869,1.506,0.869h81.986
		c1.339-0.001,2.174-1.45,1.503-2.611c-0.309-0.536-0.883-0.865-1.503-0.866H412.069L412.069,167.872z"/>
	<path fill="#FFFFFF" d="M412.069,177.826c-1.339,0-2.175,1.449-1.506,2.607c0.311,0.54,0.886,0.871,1.506,0.871h35.281
		c1.339-0.002,2.173-1.453,1.502-2.612c-0.311-0.535-0.884-0.865-1.502-0.866H412.069z"/>
	<path fill="#FFFFFF" d="M545.033,229.164l-13.892-19.606l4.497,0.935c0.468,0.099,0.868-0.348,0.719-0.803
		c-0.07-0.211-0.246-0.369-0.463-0.415l-6.703-1.394l-0.904,6.785c-0.065,0.474,0.41,0.842,0.853,0.659
		c0.205-0.084,0.353-0.273,0.38-0.494l0.609-4.558l13.893,19.61c0.277,0.389,0.874,0.335,1.072-0.1
		C545.184,229.581,545.163,229.345,545.033,229.164z"/>
	<path fill="#3F3D56" d="M469.574,286.233h-98.751c-1.009-0.001-1.827-0.818-1.828-1.829v-24.496
		c0.001-1.01,0.818-1.828,1.828-1.829h98.751c1.011,0.001,1.829,0.818,1.83,1.829v24.496
		C471.402,285.414,470.585,286.233,469.574,286.233z M370.823,258.813c-0.606,0-1.095,0.49-1.097,1.096v24.496
		c0.002,0.606,0.491,1.098,1.097,1.098h98.751c0.606,0,1.099-0.491,1.099-1.098v-24.496c0-0.606-0.493-1.096-1.099-1.096H370.823z"
		/>
	<circle fill="#FFFFFF" cx="386.167" cy="271.216" r="7.449"/>
	<path fill="#FFFFFF" d="M403.372,266.251c-0.956-0.002-1.553,1.03-1.079,1.859c0.224,0.386,0.634,0.623,1.079,0.623h58.531
		c0.955,0,1.551-1.034,1.073-1.862c-0.221-0.385-0.631-0.621-1.073-0.621H403.372L403.372,266.251z"/>
	<path fill="#FFFFFF" d="M403.372,273.701c-0.956-0.002-1.553,1.031-1.079,1.86c0.224,0.385,0.634,0.624,1.079,0.623h25.187
		c0.955,0,1.552-1.034,1.073-1.862c-0.221-0.385-0.631-0.621-1.073-0.621H403.372z"/>
	<path fill="#3F3D56" d="M599.87,198.958h43.891c1.009,0.002,1.827,0.821,1.829,1.83v45.709c-0.001,1.011-0.819,1.828-1.829,1.83
		H599.87c-1.009-0.002-1.826-0.819-1.828-1.83v-45.709C598.044,199.779,598.861,198.961,599.87,198.958z M643.761,247.595
		c0.603,0,1.096-0.492,1.096-1.098v-45.709c0-0.607-0.492-1.097-1.096-1.098H599.87c-0.605,0.001-1.095,0.492-1.098,1.098v45.709
		c0.003,0.606,0.492,1.098,1.098,1.098H643.761L643.761,247.595z"/>
	<path fill="#FFFFFF" d="M634.408,238.899c0.957,0,1.552-1.033,1.075-1.862c-0.223-0.385-0.632-0.621-1.075-0.621h-25.187
		c-0.954,0-1.551,1.035-1.073,1.863c0.222,0.385,0.632,0.62,1.073,0.62H634.408z"/>
	<path fill="#FFFFFF" d="M634.408,231.585c0.957,0.002,1.554-1.032,1.078-1.86c-0.222-0.387-0.633-0.624-1.078-0.624h-25.187
		c-0.954-0.001-1.552,1.032-1.077,1.861c0.224,0.386,0.632,0.625,1.077,0.623H634.408L634.408,231.585z"/>
	<path fill="#FFFFFF" d="M621.815,208.384c6.018,0,9.777,6.514,6.768,11.722c-3.008,5.211-10.527,5.211-13.537,0
		c-0.684-1.188-1.047-2.536-1.047-3.907C614.005,211.887,617.5,208.391,621.815,208.384z"/>
</g>
<g transform="matrix(0.24656, 0, 0, 0.24656, 316.498352, 329.995178)">
	<title>Re-Size</title>
	<path fill="#3F3D56" d="M1471.101-489.942H769.7c-7.173,0.002-12.983,4.032-12.995,8.987v414.881
		c0.012,4.963,5.822,8.983,12.995,8.987h701.401c7.177-0.004,12.983-4.024,12.987-8.987v-414.881
		C1484.085-485.91,1478.278-489.94,1471.101-489.942z M1478.888-66.074c-0.012,2.978-3.485,5.395-7.787,5.402H769.7
		c-4.309,0-7.791-2.424-7.791-5.402v-414.881c0-2.98,3.482-5.393,7.791-5.402h701.401c4.301,0.012,7.775,2.43,7.787,5.402V-66.074z"
		/>
	<rect x="1286.479" y="-173.589" fill="#3F3D56" width="110.006" height="1.149"/>
	<rect x="831.036" y="-173.589" fill="#3F3D56" width="110.006" height="1.149"/>
	<rect x="1033.573" y="-173.589" fill="#3F3D56" width="110.002" height="1.149"/>
	<circle fill="#3B5FB6" cx="841.833" cy="-173.019" r="6.682"/>
	<circle fill="#3B5FB6" cx="1088.576" cy="-173.019" r="6.682"/>
	<circle fill="#3B5FB6" cx="1385.692" cy="-173.019" r="6.682"/>
	<path fill="#3B5FB6" d="M1083.787-286.021c7.379,22.202,4.788,43.051,4.788,43.051s-14.556-15.15-21.935-37.354
		c-7.375-22.2-4.785-43.053-4.785-43.053S1076.409-308.223,1083.787-286.021z"/>
	<path fill="#3B5FB6" d="M1093.365-286.021c-7.379,22.202-4.789,43.051-4.789,43.051s14.548-15.15,21.931-37.354
		c7.375-22.2,4.785-43.053,4.785-43.053S1100.735-308.223,1093.365-286.021z"/>
	<path fill="#3F3D56" d="M1096.335-285.779c0.491,23.394-8.139,42.544-8.139,42.544s-9.431-18.774-9.93-42.166
		c-0.491-23.386,8.135-42.544,8.135-42.544S1095.836-309.169,1096.335-285.779z"/>
	<circle fill="#3B5FB6" cx="1087.305" cy="-306.451" r="2.288"/>
	<circle fill="#6C63FF" cx="1082.849" cy="-288.135" r="1.272"/>
	<circle fill="#3F3D56" cx="1067.327" cy="-300.725" r="1.271"/>
	<circle fill="#3F3D56" cx="1112.238" cy="-313.069" r="1.273"/>
	<circle fill="#3F3D56" cx="1073.941" cy="-288.77" r="1.271"/>
	<circle fill="#3F3D56" cx="1100.66" cy="-296.149" r="1.272"/>
	<circle fill="#3F3D56" cx="1074.705" cy="-270.067" r="1.269"/>
	<circle fill="#3F3D56" cx="1101.932" cy="-277.321" r="1.271"/>
	<circle fill="#6C63FF" cx="1089.594" cy="-276.048" r="1.273"/>
	<polygon fill="#3F3D56" points="1096.501,-228.509 1096.208,-229.63 1164.464,-247.457 1136.065,-356.189 1012.688,-323.963 
		1033.735,-243.381 1032.615,-243.088 1011.278,-324.789 1136.889,-357.594 1137.032,-357.037 1165.87,-246.629 	"/>
	<path fill="#3B5FB6" d="M1334.836-283.31c10.25,30.842,6.646,59.807,6.646,59.807s-20.212-21.043-30.466-51.894
		c-10.246-30.85-6.646-59.807-6.646-59.807S1324.585-314.156,1334.836-283.31z"/>
	<path fill="#3B5FB6" d="M1348.136-283.31c-10.254,30.842-6.654,59.807-6.654,59.807s20.22-21.043,30.466-51.894
		c10.254-30.85,6.654-59.807,6.654-59.807S1358.386-314.156,1348.136-283.31z"/>
	<path fill="#3F3D56" d="M1352.263-282.977c0.689,32.498-11.3,59.106-11.3,59.106s-13.102-26.082-13.791-58.576
		c-0.689-32.496,11.3-59.11,11.3-59.11S1351.578-315.477,1352.263-282.977z"/>
	<circle fill="#6C63FF" cx="1339.715" cy="-311.697" r="3.183"/>
	<circle fill="#6C63FF" cx="1333.529" cy="-286.246" r="1.769"/>
	<circle fill="#3F3D56" cx="1311.966" cy="-303.744" r="1.769"/>
	<circle fill="#3F3D56" cx="1374.36" cy="-320.889" r="1.766"/>
	<circle fill="#3F3D56" cx="1321.159" cy="-287.133" r="1.767"/>
	<circle fill="#3F3D56" cx="1358.275" cy="-297.384" r="1.768"/>
	<circle fill="#3F3D56" cx="1322.225" cy="-261.151" r="1.768"/>
	<circle fill="#3F3D56" cx="1360.046" cy="-271.223" r="1.768"/>
	<circle fill="#6C63FF" cx="1342.9" cy="-269.457" r="1.768"/>
	<polygon fill="#3F3D56" points="1352.437,-203.631 1352.144,-204.752 1447.19,-229.57 1407.622,-381.065 1235.781,-336.18 
		1265.079,-224.013 1263.966,-223.724 1234.371,-337.006 1408.45,-382.475 1408.593,-381.913 1448.6,-228.75 	"/>
	<path fill="#3B5FB6" d="M883.686-260.409c2.19,6.836,2.99,14.041,2.357,21.19c-9.807-10.726-14.591-25.111-13.15-39.572
		C877.678-273.443,881.354-267.193,883.686-260.409z"/>
	<path fill="#3B5FB6" d="M888.396-260.409c-2.194,6.836-2.994,14.041-2.353,21.19c9.807-10.726,14.583-25.111,13.146-39.572
		C894.4-273.443,890.729-267.193,888.396-260.409z"/>
	<path fill="#3F3D56" d="M889.857-260.29c0.075,7.177-1.283,14.294-4.004,20.94c-6.206-13.142-6.523-28.304-0.879-41.691
		C887.964-274.521,889.628-267.463,889.857-260.29z"/>
	<polygon fill="#3F3D56" points="892.182,-224.932 891.889,-226.045 944.365,-239.753 922.545,-323.295 827.713,-298.529 
		843.901,-236.553 842.784,-236.26 826.307,-299.357 923.373,-324.709 945.775,-238.929 	"/>
	<circle fill="#3B5FB6" cx="1358.45" cy="-331.856" r="7.711"/>
	<circle fill="#3F3D56" cx="1322.981" cy="-327.743" r="4.113"/>
	<circle fill="#3F3D56" cx="886.043" cy="-145.614" r="10.963"/>
	<circle fill="#3F3D56" cx="1088.576" cy="-145.614" r="10.963"/>
	<circle fill="#3F3D56" cx="1341.482" cy="-145.614" r="10.963"/>
	<path fill="#FFFFFF" d="M1520.46-400.938H961.986c-7.894-0.014-14.294-6.414-14.298-14.31v-245.087
		c0.004-7.894,6.404-14.29,14.298-14.306h558.474c7.898,0.016,14.298,6.412,14.314,14.306v245.087
		C1534.758-407.352,1528.358-400.952,1520.46-400.938z M961.986-669.613c-5.121,0.002-9.272,4.157-9.28,9.278v245.087
		c0.008,5.125,4.159,9.284,9.28,9.288h558.474c5.125-0.004,9.292-4.163,9.292-9.288v-245.087c0-5.121-4.167-9.276-9.292-9.278
		H961.986z"/>
	<path fill="#FFFFFF" d="M1075.723-585.246c-5.41,0-8.781,5.85-6.08,10.528c1.256,2.171,3.573,3.511,6.08,3.511h331.008
		c5.399,0,8.781-5.848,6.084-10.528c-1.263-2.18-3.581-3.511-6.084-3.511H1075.723z"/>
	<path fill="#FFFFFF" d="M1075.723-544.563c-5.41,0-8.781,5.846-6.08,10.534c1.256,2.169,3.573,3.505,6.08,3.505h331.008
		c5.399-0.004,8.777-5.858,6.06-10.542c-1.248-2.165-3.565-3.495-6.06-3.497H1075.723z"/>
	<path fill="#FFFFFF" d="M1075.723-504.373c-5.41,0-8.781,5.852-6.08,10.53c1.256,2.174,3.573,3.515,6.08,3.515h142.436
		c5.402-0.012,8.773-5.868,6.06-10.545c-1.252-2.161-3.565-3.493-6.06-3.499H1075.723z"/>
	<path fill="#FFFFFF" d="M917.468-787.662l41.144,87.855l-17.198-6.941c-1.794-0.727-3.699,0.76-3.43,2.675
		c0.127,0.891,0.717,1.64,1.545,1.98l25.634,10.341l8.456-26.305c0.602-1.836-1.022-3.636-2.915-3.232
		c-0.875,0.19-1.596,0.832-1.865,1.689l-5.68,17.677l-41.144-87.875c-0.824-1.745-3.232-1.955-4.333-0.368
		C917.167-789.432,917.083-788.476,917.468-787.662z"/>
	<path bx:origin="0.535 -0.641" fill="#3F3D56" d="M878.878-811.412c-45.442,0-73.84-49.181-51.121-88.533
		c22.719-39.35,79.516-39.35,102.231,0c5.181,8.969,7.91,19.146,7.91,29.506C937.862-837.846,911.455-811.448,878.878-811.412z
		 M878.878-926.11c-42.863,0-69.65,46.394-48.218,83.51c21.424,37.122,75.009,37.122,96.432,0c4.884-8.462,7.458-18.063,7.458-27.84
		C934.515-901.173,909.609-926.076,878.878-926.11z"/>
	<path bx:origin="0.572 -1.88" fill="#FFFFFF" d="M901.502-876.093H884.53v-16.97c0-4.359-4.709-7.082-8.488-4.903
		c-1.751,1.012-2.828,2.879-2.828,4.903v16.97h-16.972c-4.353,0-7.066,4.711-4.896,8.486c1.006,1.751,2.875,2.832,4.896,2.832
		h16.972v16.966c0,4.359,4.721,7.084,8.488,4.901c1.751-1.012,2.828-2.874,2.828-4.901v-16.966h16.972
		c4.353,0,7.082-4.715,4.899-8.49C905.395-875.018,903.526-876.093,901.502-876.093z"/>
</g>
<g transform="matrix(-0.298919, 0.125622, 0.125622, 0.298919, 956.15332, 192.365784)">
	<title>Cabello</title>
	<path fill="#2F2E41" d="M1372.636-699.438c-1.304,3.908,49.343,30.921,47.185,28.935c-2.188-4.228-5.175-34.415-1.774-34.415
		L1372.636-699.438z"/>
	<path fill="#2F2E41" d="M1364.118-716.495l-12.303-11.348l1.638,14.812l-23.687-5.578l25.269,16.75"/>
	<path fill="#2F2E41" d="M954.541-705.812"/>
	<path fill="#2F2E41" d="M1411.393-691.669c7.666-2.833,26.353,20.348,26.331,25.915c7.741-9.977,12.212-36.218,12.58-35.381
		L1411.393-691.669z"/>
	<path fill="#2F2E41" d="M1361.367-697.495c-4.211,0.887-6.356,43.405-5.026,46.04c-7.124-5.36-18.158-19.108-15.267-30.886
		L1361.367-697.495z"/>
	<path fill="#2F2E41" d="M1379.306-695.506c-6.574,2.485-3.756,33.819-1.318,32.895c-4.861,3.475-28.592-28.031-28.534-35.223
		L1379.306-695.506z"/>
	<path fill="#2F2E41" d="M1359.11-709.762c1.267-42.469,44.218-32.076,49.381-51.99c5.154,11.472,17.759,38.091-4.791,38.749
		c0,0-49.579,28.103-50.139,27.938C1353-695.228,1359.16-707.863,1359.11-709.762z"/>
	<path fill="#2F2E41" d="M954.541-705.812"/>
	<path fill="#2F2E41" d="M1455.498-681.942c-0.003,3.662,15.15,7.97,18.965,4.036c-14.069-9.441-6.754-38.894-37.749-36.853
		C1424.423-714.171,1432.471-710.537,1455.498-681.942z"/>
	<path fill="#2F2E41" d="M1432.03-708.694c4.49,12.72,38.276-7.742,41.745-15.16c-21.137,9.5-17.26-19.428-64.431-14.784
		C1398.323-737.159,1404.673-722.64,1432.03-708.694z"/>
	<path fill="#2F2E41" d="M1416.916-720.095c6.641,8.16,31.912-21.455,32.508-27.811c-15.218,13.472-32.068-1.414-49.405,7.553
		C1392.314-736.367,1393.161-723.136,1416.916-720.095z"/>
	<path fill="#2F2E41" d="M1359.78-706.621c-23.293-4.788-22.908,20.741-34.397,21.07c5.617,4.386,18.575,14.93,21.704,2.32
		c0,0,21.403-24.274,21.383-24.611C1368.453-708.178,1360.809-706.349,1359.78-706.621z"/>
	<path fill="#2F2E41" d="M1442.794-693.281c3.771,1.589,8.095,35.338,7.074,38.039c5.977-4.856,13.513-18.959,10.287-32.334
		L1442.794-693.281z"/>
	<path fill="#2F2E41" d="M1369.27-718.174c-3.272,0.998-6.824,1.992-10.665,2.989c-6.064,1.57-6.348,7.828-0.853,18.766
		c0.868,1.731-0.982,2.298-5.548,1.709c-3.28-0.427-3.422,2.843-0.422,9.81c1.643,3.824,5.766,4.392,12.373,1.703
		c6.038-2.456,11.442-6.295,16.204-11.514c4.125-4.519,10.239-4.375,18.346,0.425c9.169,5.431,19.973,6.853,32.418,4.268
		c6.615-1.377,13.3-0.38,20.051,2.982c1.328,0.664,2.317,2.086,2.985,4.265c1.299,4.273-4.239,2.275,2.14-6.546
		c3.393-4.691,1.79-10.23-6.435-16.059c-4.699-3.329,0.595-10.012-5.517-10.664c-6.339-0.678-9.605-2.099-13.226-9.385
		c-5.382-10.839-21.448-8.566-40.522,2.562C1384.105-719.077,1376.991-717.511,1369.27-718.174z"/>
</g>
<path fill="#3F3D56" d="M699.516,347.09H116.247V29.922h583.269V347.09z M117.686,345.65h580.391V31.36H117.686V345.65z"/>
<rect x="135.665" y="55.094" fill="#3D3D3D" width="128.018" height="12.946"/>
<rect x="327.692" y="55.094" fill="#3D3D3D" width="128.016" height="12.946"/>
<rect x="519.717" y="55.094" fill="#3D3D3D" width="128.017" height="12.946"/>
<path fill="#1C1C27" d="M272.314,62.286H142.857V47.902h129.456L272.314,62.286L272.314,62.286z M144.296,60.848h126.579V49.34
	H144.296V60.848z"/>
<path fill="#1C1C27" d="M464.339,62.286H334.884V47.902h129.456V62.286z M336.322,60.848h126.58V49.34h-126.58V60.848z"/>
<path fill="#1C1C27" d="M656.365,62.286H526.908V47.902h129.456V62.286z M528.348,60.848h126.579V49.34H528.348V60.848z"/>
<rect x="200.014" y="520.946" fill="#2F2E41" width="595.212" height="1.838"/>
<polygon fill="#3F3D56" points="399.251,377.655 444.561,289.912 456.787,297.105 405.006,381.25 "/>
<path fill="#3B5FB6" d="M373.001,396.713c0,0,8.35,6.563,9.299-7.477c0.243-4.509,2.371-8.706,5.858-11.572
	c3.781-3.021,9.224-5.087,15.767-1.087c5.825,3.559,7.137,8.721,6.816,13.322c-0.581,6.691-4.406,12.673-10.236,16.005
	c-6.492,3.854-16.742,6.756-27.505-2.717C373.001,403.187,366.529,395.994,373.001,396.713z"/>
<circle fill="#FFB8B8" cx="453.118" cy="171.443" r="17.452"/>
<path fill="#FFB8B8" d="M443.931,179.71c0,0,4.595,23.881,2.758,28.475c-1.838,4.593,25.719-1.837,25.719-1.837
	s-5.511-23.883-4.593-29.395S443.931,179.71,443.931,179.71z"/>
<polygon fill="#FFB8B8" points="413.621,262.379 415.457,287.177 424.574,326.127 427.398,336.779 431.99,320.246 427.398,282.586 
	425.837,265.631 "/>
<path fill="#FFB8B8" d="M510.066,258.703v25.719c0,0-2.755,33.066-8.266,41.334c-5.512,8.268-7.35-33.066-7.35-33.066l4.319-30.312
	L510.066,258.703z"/>
<path fill="#2F2E41" d="M428.317,338.616c0,0-4.594,5.512-0.919,61.542c3.674,56.031-1.837,96.446,10.104,96.446
	c0,0-3.673,11.941,6.429,12.86c10.104,0.919,14.697,1.838,15.617-0.919c0.918-2.755,2.755-15.614,0-15.614c0,0,0,3.673,1.836-11.023
	c1.838-14.696,1.838-84.504,6.431-93.69l14.697,33.986c0,0,0,15.616,2.755,22.964c2.756,7.349,7.349,49.601,7.349,49.601
	l-0.919,6.43c0,0,22.046,3.675,22.964,0c0.919-3.674,0.918-9.185,0-11.021c-0.918-1.838-0.918-1.838,0.918-5.512
	c1.838-3.674,1.838-6.43,0.92-9.185c-0.92-2.757-0.92-62.462-0.92-62.462s-1.836-72.563-12.859-76.238
	C491.696,333.106,428.317,338.616,428.317,338.616z"/>
<path fill="#2F2E41" d="M440.258,502.115l-7.349,12.859c0,0-11.482-4.131-9.185,6.431c19.747,1.379,33.525-0.459,33.525-0.459
	s4.593,1.838,5.511-0.919c0.92-2.756-2.296-12.4-5.052-12.4C454.954,507.627,440.258,502.115,440.258,502.115z"/>
<path fill="#2F2E41" d="M493.533,498.441c0,0-7.349,16.533-4.593,17.452c2.755,0.92,27.557,4.592,29.395,5.511
	c1.837,0.919,11.021,1.838,11.939-3.674c0.919-5.51-4.592-7.348-4.592-7.348s-10.104-1.838-12.859-11.022
	C510.066,490.174,493.533,498.441,493.533,498.441z"/>
<path fill="#FFFFFF" d="M474.243,203.592c0,0-24.801-4.593-30.313,0c-5.511,4.592-28.474,13.777-28.474,18.37
	s11.94,49.602,11.94,49.602s-6.43,67.972,0,69.809c6.431,1.837,17.452-3.674,30.312,2.756c12.859,6.431,49.601-5.511,49.601-5.511
	s-13.777-58.785-10.104-69.81c3.675-11.021,6.431-48.682,6.431-48.682S488.021,203.592,474.243,203.592z"/>
<path fill="#FFFFFF" d="M421.887,219.207l-6.43,1.837c0,0-13.778,43.171-8.267,45.007c5.511,1.837,21.126,5.512,22.964,5.512
	C431.99,271.563,421.887,219.207,421.887,219.207z"/>
<path fill="#FFFFFF" d="M488.94,214.614l14.697,5.512c0,0,19.289,35.822,14.696,40.415c-4.592,4.594-24.8,9.186-24.8,9.186
	L488.94,214.614z"/>
<path fill="#2F2E41" d="M452.587,149.886c-1.452-0.263-2.942-0.197-4.366,0.193c-1.139,0.505-2.187,1.192-3.103,2.035
	c-1.661,1.325-3.436,2.502-5.304,3.515c-1.489,0.808-3.09,1.557-4.128,2.894c-0.492,0.676-0.884,1.419-1.165,2.204
	c-1.79,4.573-2.271,9.552-1.39,14.382c0.1,0.685,0.306,1.352,0.612,1.974c0.955,1.76,3.064,2.452,4.84,3.375
	c3.371,1.75,5.928,4.698,8.693,7.303c1.029,1.025,2.184,1.916,3.436,2.648c3.947,2.151,8.769,1.45,13.199,0.689
	c1.313-0.002,2.376-1.071,2.373-2.384c0-0.006,0-0.011,0-0.018l3.497-15.726c0.634-2.331,0.934-4.738,0.896-7.152
	c-0.244-3.817-2.311-9.105-5.112-11.818C462.301,150.841,456.854,150.339,452.587,149.886z"/>
<ellipse fill="#3B5FB6" cx="380.911" cy="519.697" rx="25.172" ry="1.438"/>
<ellipse fill="#3B5FB6" cx="375.158" cy="522.572" rx="25.173" ry="1.439"/>
<ellipse fill="#3B5FB6" cx="349.987" cy="513.942" rx="13.664" ry="0.781"/>
<ellipse fill="#3B5FB6" cx="398.892" cy="531.203" rx="13.664" ry="0.781"/>
</svg>
