<?xml version="1.0" encoding="utf-8"?>
<svg viewBox="-921.13 -611.782 2550.084 1667.224" xmlns="http://www.w3.org/2000/svg" xmlns:bx="https://boxy-svg.com">
  <path d="M 2531.269 474.472 C 2527.454 482.778 2523.651 490.977 2519.861 499.062 C 2513.936 511.626 2508.096 523.945 2502.325 536.023 C 2499.761 541.373 2497.195 546.624 2494.694 551.872 C 2466.411 610.266 2440.006 661.912 2417.576 704.384 C 2376.116 782.773 2295.663 832.077 2207.716 833.002 L 1708.963 838.487 L 1703.705 838.487 L 1660.944 838.95 L 1624.375 839.35 L 1512.223 840.578 L 1507.686 840.578 L 1450.594 841.209 L 1448.848 841.209 L 1096.942 845.066 L 782.83 848.385 L 746.287 848.786 L 519.358 851.281 L 519.094 851.281 L 371.922 852.875 L 370.342 852.875 L -95.024 857.959 L -234.245 859.487 C -246.095 859.623 -257.948 859.026 -269.728 857.695 L -269.728 857.695 C -273.74 857.229 -277.756 856.695 -281.733 856.065 C -346.66 845.94 -406.194 813.634 -450.418 764.539 C -510.307 697.968 -553.885 620.3 -583.152 536.023 C -587.386 523.854 -591.331 511.54 -594.995 499.062 C -696.324 152.928 -572.795 -293.64 -350.472 -592.479 C -341.15 -604.976 -331.675 -617.159 -322.053 -629.038 L -321.823 -629.302 C -253.45 -714.115 -176.79 -784.971 -95.127 -835.352 C 49.584 -924.786 209.916 -949.975 367.611 -874.9 C 501.04 -811.357 625.623 -781.482 746.388 -773.369 C 758.587 -772.574 770.791 -771.977 782.927 -771.613 C 1059.946 -762.804 1319.564 -863.669 1624.44 -928.773 C 1636.575 -931.365 1648.744 -933.923 1661.012 -936.35 C 1878.503 -980.088 2119.771 -1003.15 2406.687 -954.662 C 2436.496 -949.741 2465.912 -942.633 2494.694 -933.391 C 2507.351 -929.271 2519.542 -924.838 2531.269 -920.098 C 2668.217 -863.8 2742.904 -759.779 2774.642 -629.436 C 2777.649 -617.337 2780.248 -605.026 2782.437 -592.51 C 2838.711 -278.978 2673.906 165.76 2531.269 474.472 Z" style="fill: rgb(154, 179, 245);"/>
  <path d="M 984.788 497.778 C 983.481 510.085 981.446 522.296 978.701 534.351 L 1283.63 534.351 L 1283.63 497.778 Z M 730.141 704.329 L 766.299 704.033 L 766.299 613.698 C 753.899 613.139 741.824 612.582 730.141 611.989 Z M -27.845 497.778 L -27.845 534.351 L 618.13 534.351 L 618.13 497.778 Z M 2737.252 -618.73 L 2496.432 -618.73 L 2496.432 -906.441 C 2484.827 -911.194 2472.766 -915.581 2460.247 -919.597 L 2460.247 -618.73 L 1635.159 -618.73 L 1635.159 -922.652 C 1623.019 -920.253 1610.979 -917.722 1598.971 -915.154 L 1598.971 -618.73 L 766.299 -618.73 L 766.299 -759.646 C 754.292 -760.007 742.214 -760.596 730.141 -761.384 L 730.141 -618.73 L -102.53 -618.73 L -102.53 -822.618 C -183.335 -772.763 -259.19 -702.655 -326.841 -618.73 L -327.074 -618.73 L -327.074 -618.468 C -336.619 -606.632 -345.993 -594.57 -355.189 -582.296 L -327.074 -582.296 L -327.074 497.778 L -597.181 497.778 C -593.579 510.123 -589.671 522.309 -585.464 534.351 L -327.104 534.351 L -327.104 842.219 C -314.108 846.236 -300.837 849.304 -287.404 851.394 C -283.467 852.018 -279.496 852.546 -275.526 853.001 L -275.526 853.001 C -263.868 854.323 -252.142 854.914 -240.412 854.783 L -102.659 853.265 L -102.659 534.285 L 730.141 534.285 L 730.141 844.09 L 766.299 843.697 L 766.299 534.351 L 1598.971 534.351 L 1598.971 834.789 L 1635.159 834.393 L 1635.159 534.351 L 2460.082 534.351 L 2460.082 550.032 C 2462.556 544.84 2465.094 539.644 2467.632 534.351 C 2473.344 522.398 2479.123 510.212 2484.982 497.778 C 2488.733 489.804 2492.495 481.688 2496.27 473.444 L 2496.27 -582.163 L 2744.965 -582.163 C 2742.774 -594.638 2740.204 -606.827 2737.252 -618.73 Z M -102.53 497.778 L -102.53 -582.296 L 730.141 -582.296 L 730.141 497.778 Z M 766.361 497.778 L 766.361 -582.296 L 1598.971 -582.296 L 1598.971 497.778 Z M 2460.15 497.778 L 1635.159 497.778 L 1635.159 -582.296 L 2460.082 -582.296 Z" opacity="0.1" style="paint-order: fill;"/>
  <path d="M 475.333 27.004 C 475.333 27.004 489.187 131.447 467.873 143.17 C 446.558 154.893 594.696 155.959 594.696 155.959 C 594.696 155.959 561.658 65.371 576.578 37.662 Z" style="fill: rgb(255, 184, 184);" transform="matrix(1, 0, 0, 1, -295.545624, 188.058945)"/>
  <rect x="927.585" y="473.563" width="65.649" height="38.842" style="fill: rgb(255, 255, 255);" transform="matrix(1, 0, 0, 1, -295.545624, 188.058945)"/>
  <rect x="918.559" y="481.769" width="82.881" height="14.224" style="fill: rgb(255, 255, 255); stroke-linejoin: round;" transform="matrix(1, 0, 0, 1, -295.545624, 188.058945)"/>
  <rect x="939.776" y="468.832" width="41.009" height="10.748" style="fill: rgb(255, 255, 255); stroke-linejoin: round;" transform="matrix(1, 0, 0, 1, -295.545624, 188.058945)"/>
  <rect x="928.406" y="537.57" width="65.101" height="44.039" style="fill: rgb(255, 255, 255); stroke-linejoin: round;" transform="matrix(1, 0, 0, 1, -295.545624, 188.058945)"/>
  <circle cx="530.218" cy="-9.764" r="73.536" style="fill: rgb(255, 184, 184);" transform="matrix(1, 0, 0, 1, -295.545624, 188.058945)"/>
  <g transform="matrix(-1, 0, 0, 1, 855.264404, 134.986115)" style="">
    <title>Cabello</title>
    <path style="fill: rgb(47, 46, 65);" d="M 581.334 8.861 C 579.522 14.297 649.942 51.857 646.943 49.094 C 643.902 43.215 639.75 1.243 644.473 1.243 L 581.334 8.861 Z"/>
    <path style="fill: rgb(47, 46, 65);" d="M 527.696 -5.6 L 550.794 -2.803 L 536.906 -18.176 L 568.158 -31.147 L 526.038 -29.496" transform="matrix(-0.811179, -0.584798, 0.584798, -0.811179, 1000.819385, 289.197047)"/>
    <path style="fill: rgb(47, 46, 65);"/>
    <path style="fill: rgb(47, 46, 65);" d="M 635.223 19.664 C 645.884 15.725 671.865 47.956 671.836 55.696 C 682.596 41.824 688.815 5.337 689.326 6.501 L 635.223 19.664 Z"/>
    <path style="fill: rgb(47, 46, 65);" d="M 538.522 74.605 C 544.478 75.232 565.468 19.882 564.833 15.83 C 571.969 25.964 580.705 48.867 571.847 63.219 L 538.522 74.605 Z" transform="matrix(-0.951701, 0.307025, -0.307025, -0.951701, 1101.087843, -82.773513)"/>
    <path style="fill: rgb(47, 46, 65);" d="M 555.667 48.886 C 565.393 47.914 572.884 4.821 569.275 5.181 C 577.055 2.263 597.595 53.117 594.922 62.756 L 555.667 48.886 Z" transform="matrix(-0.965926, 0.258819, -0.258819, -0.965926, 1139.996547, -82.267075)"/>
    <path style="fill: rgb(47, 46, 65);" d="M 570.664 5.12 C 555.653 -52.015 617.02 -55.042 616.08 -83.639 C 627.457 -70.362 654.739 -39.815 624.925 -30.074 C 624.925 -30.074 569.852 26.904 569.044 26.904 C 568.231 26.904 571.474 7.633 570.664 5.12 Z" transform="matrix(0.959173, 0.282821, -0.282821, 0.959173, 16.610409, -171.799522)"/>
    <path style="fill: rgb(47, 46, 65);"/>
    <path style="fill: rgb(47, 46, 65);" d="M 696.548 33.187 C 696.548 38.282 717.619 44.271 722.919 38.799 C 703.358 25.675 713.524 -15.278 670.429 -12.439 C 653.336 -11.622 664.532 -6.571 696.548 33.187 Z"/>
    <path style="fill: rgb(47, 46, 65);" d="M 663.92 -4.009 C 670.162 13.678 717.139 -14.771 721.958 -25.085 C 692.571 -11.877 697.957 -52.1 632.378 -45.645 C 617.048 -43.588 625.88 -23.4 663.92 -4.009 Z"/>
    <path style="fill: rgb(47, 46, 65);" d="M 637.273 -23.3 C 642.14 -9.507 689.111 -36.413 692.869 -44.456 C 666.629 -33.96 651.555 -61.35 624.659 -57.742 C 612.704 -56.139 607.606 -38.424 637.273 -23.3 Z" transform="matrix(0.941384, -0.337336, 0.337336, 0.941384, 50.843344, 217.049555)"/>
    <path style="fill: rgb(47, 46, 65);" d="M 527.09 0.196 C 518.417 32.105 553.876 33.794 553.332 49.766 C 559.907 42.351 575.67 25.29 558.444 19.85 C 558.444 19.85 526.622 -11.971 526.154 -11.971 C 525.686 -11.971 527.559 -1.209 527.09 0.196 Z" transform="matrix(0.062684, 0.998033, -0.998033, 0.062684, 530.615719, -527.192944)"/>
    <path style="fill: rgb(47, 46, 65);" d="M 667.719 23.626 C 673.373 23.011 701.426 61.105 702.009 65.077 C 705.989 55.141 705.625 32.906 692.669 18.835 L 667.719 23.626 Z" transform="matrix(0.874082, 0.485779, -0.485779, 0.874082, 106.721195, -327.58971)"/>
    <path style="fill: rgb(47, 46, 65);" d="M 576.655 -17.189 C 572.107 -15.804 567.165 -14.421 561.827 -13.036 C 553.397 -10.851 553.002 -2.151 560.64 13.061 C 561.847 15.465 559.277 16.255 552.93 15.433 C 548.366 14.842 548.168 19.39 552.337 29.076 C 554.625 34.393 560.358 35.183 569.538 31.448 C 577.936 28.03 585.449 22.693 592.076 15.433 C 597.81 9.153 606.312 9.351 617.581 16.027 C 630.327 23.579 645.353 25.556 662.659 21.958 C 671.857 20.046 681.149 21.43 690.536 26.11 C 692.38 27.028 693.763 29.005 694.688 32.041 C 696.496 37.977 688.799 35.196 697.667 22.934 C 702.386 16.41 700.156 8.713 688.716 0.605 C 682.183 -4.024 689.539 -13.316 681.046 -14.224 C 672.235 -15.164 667.688 -17.141 662.659 -27.272 C 655.177 -42.345 632.836 -39.182 606.312 -23.712 C 597.28 -18.445 587.393 -16.27 576.655 -17.189 Z"/>
  </g>
  <path d="M 705.289 154.064 L 692.969 210.164 L 666.919 328.854 L 666.139 335.354 L 657.149 410.604 L 651.169 460.594 L 647.159 494.174 C 622.779 506.704 605.109 515.354 605.109 515.354 C 605.109 515.354 603.589 507.734 601.139 497.984 C 584.029 503.114 552.369 511.624 525.539 513.324 C 535.309 524.214 539.799 534.444 533.709 541.994 C 515.329 564.754 439.449 517.074 412.909 499.294 C 412.291 503.551 412.057 507.855 412.209 512.154 L 391.899 496.534 L 393.909 460.594 L 397.299 399.784 L 401.559 323.524 C 400.216 320.259 399.09 316.908 398.189 313.494 C 391.969 291.374 384.419 247.204 378.629 210.164 C 373.969 180.354 370.469 155.164 369.729 149.804 C 369.629 149.104 369.579 148.744 369.579 148.744 L 479.647 100.091 C 487.637 118.621 527.309 123.164 527.309 123.164 C 558.201 121.035 577.589 106.963 579.747 105.716 L 705.289 154.064 Z" style="fill: rgb(255, 255, 255);" transform="matrix(1, 0, 0, 1, -295.545624, 188.058945)"/>
  <path d="M 782.797 414.397 C 775.307 422.517 756.747 434.747 734.247 447.987 C 725.877 452.907 716.967 457.977 707.877 463.017 C 686.187 475.047 663.477 486.967 644.737 496.597 C 620.357 509.127 602.687 517.777 602.687 517.777 C 602.687 517.777 601.167 510.157 598.717 500.407 C 595.437 487.357 590.497 470.487 585.347 463.017 C 585.167 462.757 584.987 462.517 584.807 462.277 C 583.307 460.307 581.797 459.157 580.307 459.157 L 654.727 413.027 L 686.887 393.087 L 663.717 337.777 L 634.657 268.397 L 652.197 212.587 L 669.827 156.487 L 702.867 156.487 C 702.867 156.487 713.807 180.367 727.797 213.667 C 729.887 218.647 732.047 223.837 734.247 229.197 C 763.027 299.197 798.907 396.947 782.797 414.397 Z" style="fill: rgb(255, 255, 255);" transform="matrix(1, 0, 0, 1, -295.545624, 188.058945)"/>
  <path d="M 450.287 462.357 C 447.573 462.347 444.864 462.567 442.187 463.017 C 419.197 466.967 412.417 487.777 410.487 501.717 C 409.869 505.974 409.635 510.278 409.787 514.577 L 389.477 498.957 L 382.077 493.267 C 364.267 487.057 348.397 476.027 334.637 463.017 C 322.7 451.531 311.992 438.832 302.687 425.127 C 293.419 411.619 285.157 397.447 277.967 382.727 C 273.906 374.411 273.749 364.721 277.537 356.277 L 302.687 300.227 L 339.447 218.307 C 339.717 216.357 340.014 214.45 340.337 212.587 C 347.627 170.787 367.157 152.227 367.157 152.227 L 382.077 152.227 L 392.057 212.587 L 404.457 287.577 L 395.767 315.917 L 375.687 381.367 L 394.877 402.207 Z" style="fill: rgb(255, 255, 255);" transform="matrix(1, 0, 0, 1, -295.545624, 188.058945)"/>
  <path d="M478.55,727.24542c1.12-4.88,1.87-7.64,1.87-7.64l-.57995-3.97-5.97-40.54-2.51-17.1c21.74-9.06,27.18-50.74,27.18-50.74l.82-.49,3.71-2.22v-.01l13.32-7.99.27-.16,5.38,3.58,10.93,7.29c38.24,28.12,77.18,27.62,101.21,23.19,14.69-2.71,23.82-6.88,23.82-6.88l26.36-8.79.82-.27.81.12,15.46,2.34.28.05,1.28.19-3.58,24.75-5.19,35.97c13.71,7.26,25.9,20.9,36.56,37.71q3.54,5.58,6.86,11.61c2.88,5.2,5.63,10.61,8.25,16.15.32.66.63,1.33.94,2,1.01,2.17,2.01,4.36,2.98005,6.56H473.75c.36-2.21.72-4.32,1.07-6.35a1.54822,1.54822,0,0,0,.04-.21c.13-.68.25-1.34.36-2C476.44,736.79541,477.62,731.28546,478.55,727.24542Z" transform="matrix(1, 0, 0, 1, -339.776398, -11.962861)" fill="#2f2e41"/>
  <circle cx="462.63037" cy="487.56653" r="9.06038" fill="#6c63ff" transform="matrix(1, 0, 0, 1, -290.276367, 105.011696)"/>
  <circle cx="643.838" cy="496.62692" r="9.06038" fill="#6c63ff" transform="matrix(1, 0, 0, 1, -290.276367, 105.011696)"/>
  <path d="M721.4252,612.69543s-82.44948-15.40265-87.8857,11.77849,91.50985,15.40265,91.50985,15.40265Z" transform="matrix(1, 0, 0, 1, -339.776398, -11.962861)" fill="#ffb8b8"/>
  <path d="M427.86884,688.80263l25.36906,19.93284s18.12077,56.17437,45.30191,39.86568S473.17074,674.306,473.17074,674.306l-30.80529-10.87246Z" transform="matrix(1, 0, 0, 1, -339.776398, -11.962861)" fill="#ffb8b8"/>
  <path d="M814.1,733.45544v6.07a13.34008,13.34008,0,0,1-.91,4.87,13.68227,13.68227,0,0,1-.97,2,13.4373,13.4373,0,0,1-11.55,6.56H354.12a13.43736,13.43736,0,0,1-11.55-6.56,13.68842,13.68842,0,0,1-.97-2,13.34153,13.34153,0,0,1-.91-4.87v-6.07a13.42641,13.42641,0,0,1,13.43-13.43h25.74v-2.83a.55908.55908,0,0,1,.56-.56h13.43a.55908.55908,0,0,1,.56.56v2.83h8.39v-2.83a.55908.55908,0,0,1,.56-.56h13.43a.55908.55908,0,0,1,.56.56v2.83h8.4v-2.83a.55908.55908,0,0,1,.56-.56h13.43a.55908.55908,0,0,1,.56.56v2.83h8.39v-2.83a.55908.55908,0,0,1,.56-.56h13.43a.55908.55908,0,0,1,.56.56v2.83h8.39v-2.83a.55908.55908,0,0,1,.56-.56h13.43a.55908.55908,0,0,1,.56.56v2.83h8.4v-2.83a.55908.55908,0,0,1,.56-.56h13.43a.55908.55908,0,0,1,.56.56v2.83h8.39v-2.83a.55908.55908,0,0,1,.56-.56h105.2a.55908.55908,0,0,1,.56.56v2.83h8.4v-2.83a.55908.55908,0,0,1,.56-.56h13.43a.56552.56552,0,0,1,.56.56v2.83h8.39v-2.83a.55908.55908,0,0,1,.56-.56h13.43a.55908.55908,0,0,1,.56.56v2.83h8.39v-2.83a.55908.55908,0,0,1,.56-.56h13.43a.55908.55908,0,0,1,.56.56v2.83h8.4v-2.83a.55908.55908,0,0,1,.56-.56h13.43a.557.557,0,0,1,.55.56v2.83h8.4v-2.83a.55908.55908,0,0,1,.56-.56H738a.55908.55908,0,0,1,.56.56v2.83h8.39v-2.83a.55908.55908,0,0,1,.56-.56h13.43a.55908.55908,0,0,1,.56.56v2.83h39.17A13.42636,13.42636,0,0,1,814.1,733.45544Z" transform="matrix(1, 0, 0, 1, -339.776398, -11.962861)" fill="#3f3d56"/>
  <rect x="161.44819" y="627.41618" width="732.99951" height="2" transform="matrix(1, 0, 0, 1, -290.276367, 105.011696)" fill="#3f3d56"/>
  <path d="M778.14246,477.82126H611.69957v-3.43053H536.22789v3.43053h-167.129a11.25861,11.25861,0,0,0-11.25861,11.25861v227.9115A11.25864,11.25864,0,0,0,369.09889,728.25H778.14246a11.25864,11.25864,0,0,0,11.25861-11.25865V489.07987A11.2586,11.2586,0,0,0,778.14246,477.82126Z" transform="matrix(1, 0, 0, 1, -339.776398, -11.962861)" fill="#3f3d56"/>
  <circle cx="524.44819" cy="440.41618" r="25" fill="none" stroke-miterlimit="10" stroke-width="2" transform="matrix(1, 0, 0, 1, -290.276367, 105.011696)" style="stroke: rgb(255, 255, 255);"/>
  <circle cx="516.44819" cy="449.41618" r="25" transform="matrix(1, 0, 0, 1, -290.276367, 105.011696)" style="fill: rgb(255, 255, 255);"/>
  <rect x="26.02015" y="663.55077" width="189" height="2.26159" fill="#3f3d56" transform="matrix(1, 0, 0, 1, -290.276367, 105.011696)"/>
  <rect x="851.02015" y="663.55077" width="189" height="2.26159" fill="#3f3d56" transform="matrix(1, 0, 0, 1, -290.276367, 105.011696)"/>
  <path d="M185.63919,707.69176c-19.911,32.5064-13.06067,72.9409-13.06067,72.9409s39.1325-12.26879,59.04353-44.7752,13.06067-72.9409,13.06067-72.9409S205.55022,675.18536,185.63919,707.69176Z" transform="matrix(1, 0, 0, 1, -339.776398, -11.962861)" fill="#3f3d56"/>
  <path d="M 135.338 574.219 L 134.203 574.04 C 133.793 573.976 94.069 565.242 70.296 536.263 C 46.523 507.284 48.36 468.481 48.379 468.07 L 48.525 467.569 L 48.335 466.959 C 48.746 467.024 89.615 473.724 113.389 502.704 C 137.162 531.682 135.415 572.671 135.395 573.082 L 135.338 574.219 Z" style="fill: rgb(117, 121, 231);" transform="matrix(0.990472, 0.137713, -0.137713, 0.990472, -222.979279, 181.489319)" bx:origin="0.415 0.506"/>
  <path d="M173.37365,781.92912l-1.09375-.34277c-.39551-.124-39.7207-12.75586-59.59766-45.20605-19.87695-32.45118-13.26269-73.22266-13.19433-73.63086l.1914-1.12989,1.09375.34278c.39551.124,39.72071,12.75586,59.59766,45.207h0c19.87695,32.45019,13.2627,73.22168,13.19434,73.62988Zm-72.081-117.67773c-.90528,6.84277-4.51368,42.33594,13.09472,71.084,17.60938,28.74707,50.86719,41.65821,57.373,43.96192.90527-6.84278,4.51367-42.33594-13.09473-71.083h0C141.05627,679.46623,107.79846,666.5551,101.2926,664.25139Z" transform="matrix(1, 0, 0, 1, -339.776398, -11.962861)" fill="#3f3d56"/>
  <circle cx="124.32091" cy="536.32762" r="22" fill="#3f3d56" transform="matrix(1, 0, 0, 1, -290.276367, 105.011696)"/>
  <polygon points="319.905 160.001 193.698 32.798 134.116 32.798 134.116 30.798 194.533 30.798 194.827 31.095 321.327 158.595 319.905 160.001" fill="#3f3d56" transform="matrix(1, 0, 0, 1, -295.545624, 188.058945)" bx:origin="0.172 0.429"/>
  <path d="M1038.5,713.02545h-2v-15a3.00328,3.00328,0,0,1,3-3h5a1.00067,1.00067,0,0,0,1-1v-10a1.00067,1.00067,0,0,0-1-1h-5a3.00328,3.00328,0,0,1-3-3v-5a1.00067,1.00067,0,0,0-1-1h-9a3.00328,3.00328,0,0,1-3-3v-1a1.00067,1.00067,0,0,0-1-1h-36a1.00067,1.00067,0,0,0-1,1v1a3.00328,3.00328,0,0,1-3,3h-9a1.00067,1.00067,0,0,0-1,1v5a3.00328,3.00328,0,0,1-3,3h-5a1.00067,1.00067,0,0,0-1,1v10a1.00067,1.00067,0,0,0,1,1h6a3.00328,3.00328,0,0,1,3,3v15h-2v-15a1.00067,1.00067,0,0,0-1-1h-6a3.00328,3.00328,0,0,1-3-3v-10a3.00328,3.00328,0,0,1,3-3h5a1.00067,1.00067,0,0,0,1-1v-5a3.00328,3.00328,0,0,1,3-3h9a1.00067,1.00067,0,0,0,1-1v-1a3.00328,3.00328,0,0,1,3-3h36a3.00328,3.00328,0,0,1,3,3v1a1.00067,1.00067,0,0,0,1,1h9a3.00328,3.00328,0,0,1,3,3v5a1.00067,1.00067,0,0,0,1,1h5a3.00328,3.00328,0,0,1,3,3v10a3.00328,3.00328,0,0,1-3,3h-5a1.00067,1.00067,0,0,0-1,1Z" transform="matrix(1, 0, 0, 1, -339.776398, -11.962861)" fill="#3f3d56"/>
  <path d="M1035.5,783.02545h-61a3.00328,3.00328,0,0,1-3-3v-43h2v43a1.00067,1.00067,0,0,0,1,1h61a1.00067,1.00067,0,0,0,1-1v-43h2v43A3.00328,3.00328,0,0,1,1035.5,783.02545Z" transform="matrix(1, 0, 0, 1, -339.776398, -11.962861)" fill="#3f3d56"/>
  <rect x="920.73" y="512.219" width="79" height="24" rx="2" style="fill: rgb(117, 121, 231);" transform="matrix(1, 0, 0, 1, -295.545624, 188.058945)"/>
  <path d="M1042,738.02545H967a3.00328,3.00328,0,0,1-3-3v-20a3.00328,3.00328,0,0,1,3-3h75a3.00328,3.00328,0,0,1,3,3v20A3.00328,3.00328,0,0,1,1042,738.02545Zm-75-24a1.00067,1.00067,0,0,0-1,1v20a1.00067,1.00067,0,0,0,1,1h75a1.00067,1.00067,0,0,0,1-1v-20a1.00067,1.00067,0,0,0-1-1Z" transform="matrix(1, 0, 0, 1, -339.776398, -11.962861)" style="fill: rgb(63, 61, 86);"/>
  <path d="M1002.5,660.02545v0a249.6283,249.6283,0,0,1-2.09463-54.11121L1002.5,576.02545h0c-11.54175,22.96553-8.93335,53.1922,0,83.99993Z" transform="matrix(1, 0, 0, 1, -339.776398, -11.962861)" style="fill: rgb(154, 179, 245);"/>
  <path d="M1011.5,665.02545v0a183.49687,183.49687,0,0,1-1.00779-32.20905L1011.5,615.02545h0c-5.55309,13.67-4.29811,31.662,0,50Z" transform="matrix(1, 0, 0, 1, -339.776398, -11.962861)" style="fill: rgb(154, 179, 245);"/>
  <g transform="matrix(0.273677, 0, 0, 0.273677, -267.034576, 77.999397)" style="">
    <title>Web1</title>
    <rect x="-514.504" y="264.532" width="874.741" height="560.223" fill="#e6e6e6"/>
    <rect x="-489.491" y="334.798" width="824.715" height="456.814" fill="#fff"/>
    <rect width="874.741" height="37.162" x="-514.877" y="264.036" style="fill: rgb(61, 61, 61);"/>
    <circle cx="-487.261" cy="283.035" r="6.888" fill="#fff"/>
    <circle cx="-461.117" cy="283.035" r="6.888" fill="#fff"/>
    <circle cx="-434.973" cy="283.035" r="6.888" fill="#fff"/>
    <rect x="-414.554" y="382.196" width="211.913" height="362.018" fill="#e6e6e6"/>
    <rect x="-166.061" y="382.196" width="176.594" height="99.649" style="fill: rgb(117, 121, 231);"/>
    <rect x="-166.061" y="509.596" width="176.594" height="107.218" fill="#e6e6e6"/>
    <rect x="-166.061" y="644.564" width="176.594" height="99.649" fill="#e6e6e6"/>
    <rect x="48.374" y="382.196" width="211.913" height="157.765" fill="#e6e6e6"/>
    <rect x="48.374" y="586.448" width="211.913" height="157.765" style="fill: rgb(117, 121, 231);"/>
  </g>
  <g transform="matrix(0.73606, 0, 0, 0.73606, 504.835083, -122.947548)" style="">
    <title>Web 2</title>
    <rect x="193.41" y="328.652" width="379.87" height="13.417" style="fill: rgba(61, 61, 61, 0.89);"/>
    <rect x="193.506" y="342.596" width="379.486" height="233.328" style="fill: rgb(255, 255, 255);"/>
    <circle cx="247.652" cy="462" r="36.664" style="fill: rgb(117, 121, 231);"/>
    <path d="M 550.48 414.383 L 345.02 414.383 L 345.02 371.39 L 550.48 371.39 Z M 345.925 413.477 L 549.575 413.477 L 549.575 372.295 L 345.925 372.295 Z" fill="#3f3d56" style=""/>
    <rect x="330.991" y="379.988" width="204.555" height="42.088" style="fill: rgb(117, 121, 231);"/>
    <circle cx="201.682" cy="336.656" r="3.168" style="fill: rgb(117, 121, 231);"/>
    <circle cx="212.543" cy="336.656" r="3.168" style="fill: rgb(117, 121, 231);"/>
    <circle cx="223.404" cy="336.656" r="3.168" style="fill: rgb(117, 121, 231);"/>
    <path d="M 573.683 576.058 L 192.631 576.058 L 192.631 328.058 L 573.683 328.058 Z M 193.536 575.153 L 572.778 575.153 L 572.778 328.963 L 193.536 328.963 Z" fill="#3f3d56" style=""/>
    <rect x="193.083" y="341.786" width="380.147" height="0.905" fill="#3f3d56" style=""/>
    <path d="M 202.587 338.919 C 199.8 338.919 198.058 335.902 199.451 333.488 C 200.845 331.075 204.329 331.075 205.722 333.488 C 206.04 334.039 206.207 334.663 206.207 335.298 C 206.205 337.297 204.585 338.917 202.587 338.919 Z M 202.587 332.583 C 200.497 332.583 199.19 334.846 200.235 336.656 C 201.28 338.466 203.893 338.466 204.938 336.656 C 205.177 336.243 205.302 335.775 205.302 335.298 C 205.3 333.8 204.086 332.585 202.587 332.583 Z" fill="#3f3d56" style=""/>
    <path d="M 213.448 338.919 C 210.661 338.919 208.919 335.902 210.313 333.488 C 211.706 331.075 215.19 331.075 216.584 333.488 C 216.901 334.039 217.069 334.663 217.069 335.298 C 217.066 337.297 215.447 338.917 213.448 338.919 Z M 213.448 332.583 C 211.358 332.583 210.051 334.846 211.097 336.656 C 212.142 338.466 214.755 338.466 215.8 336.656 C 216.038 336.243 216.163 335.775 216.163 335.298 C 216.162 333.8 214.947 332.585 213.448 332.583 Z" fill="#3f3d56" style=""/>
    <path d="M 224.309 338.919 C 221.522 338.919 219.781 335.902 221.174 333.488 C 222.568 331.075 226.051 331.075 227.445 333.488 C 227.763 334.039 227.93 334.663 227.93 335.298 C 227.928 337.297 226.308 338.917 224.309 338.919 Z M 224.309 332.583 C 222.219 332.583 220.913 334.846 221.958 336.656 C 223.003 338.466 225.616 338.466 226.661 336.656 C 226.899 336.243 227.025 335.775 227.025 335.298 C 227.023 333.8 225.808 332.585 224.309 332.583 Z" fill="#3f3d56" style=""/>
    <rect x="311.982" y="342.238" width="0.905" height="233.719" fill="#3f3d56" style=""/>
    <rect x="355.202" y="457.149" width="66.526" height="9.051" style="fill: rgb(117, 121, 231);"/>
    <rect x="459.743" y="457.149" width="66.526" height="9.051" style="fill: rgb(108, 99, 255);"/>
    <path d="M 425.801 462.127 L 358.37 462.127 L 358.37 452.171 L 425.801 452.171 Z M 359.275 461.222 L 424.896 461.222 L 424.896 453.076 L 359.275 453.076 Z" style="fill: rgb(63, 61, 86);"/>
    <rect x="355.202" y="527.295" width="66.526" height="9.051" style="fill: rgb(117, 121, 231);"/>
    <path d="M 425.801 532.273 L 358.37 532.273 L 358.37 522.317 L 425.801 522.317 Z M 359.275 531.368 L 424.896 531.368 L 424.896 523.222 L 359.275 523.222 Z" fill="#3f3d56" style=""/>
    <rect x="355.429" y="491.317" width="171.066" height="9.051" style="fill: rgb(117, 121, 231);"/>
    <path d="M 530.568 497.2 L 358.597 497.2 L 358.597 487.244 L 530.568 487.244 Z M 359.502 496.295 L 529.663 496.295 L 529.663 488.149 L 359.502 488.149 Z" style="fill: rgb(63, 61, 86);"/>
    <path d="M 530.342 462.127 L 462.911 462.127 L 462.911 452.171 L 530.342 452.171 Z M 463.816 461.222 L 529.437 461.222 L 529.437 453.076 L 463.816 453.076 Z" style="" fill="#3f3d56"/>
    <path d="M 253.857 489.075 C 225.199 489.075 207.287 458.051 221.616 433.232 C 235.946 408.413 271.769 408.413 286.098 433.232 C 289.365 438.892 291.085 445.311 291.085 451.846 C 291.062 472.397 274.408 489.052 253.857 489.075 Z M 253.857 415.746 C 226.067 415.746 208.698 445.83 222.593 469.897 C 236.488 493.963 271.226 493.963 285.121 469.897 C 288.289 464.409 289.957 458.183 289.957 451.846 C 289.935 431.918 273.785 415.769 253.857 415.746 Z" style="fill: rgb(63, 61, 86);"/>
    <polygon points="-88.386 627.477 84.154 454.661 165.102 454.661 165.12 451.943 83.037 451.943 82.636 452.347 -90.306 625.567 -88.386 627.477" fill="#3f3d56" style=""/>
  </g>
</svg>