<?xml version="1.0" encoding="utf-8"?>
<!-- Generator: Adobe Illustrator 16.0.3, SVG Export Plug-In . SVG Version: 6.00 Build 0)  -->
<!DOCTYPE svg PUBLIC "-//W3C//DTD SVG 1.1//EN" "http://www.w3.org/Graphics/SVG/1.1/DTD/svg11.dtd">
<svg version="1.1" id="Capa_1" xmlns="http://www.w3.org/2000/svg" xmlns:xlink="http://www.w3.org/1999/xlink" x="0px" y="0px"
	 width="841.891px" height="595.281px" viewBox="0 0 841.891 595.281" enable-background="new 0 0 841.891 595.281"
	 xml:space="preserve">
<path fill="#3F95E6" d="M757.234,425.637c-0.673,1.467-1.345,2.913-2.015,4.341c-1.047,2.219-2.077,4.395-3.096,6.526
	c-0.453,0.944-0.906,1.872-1.347,2.798c-4.994,10.311-9.656,19.43-13.618,26.929c-7.32,13.841-21.525,22.547-37.054,22.709
	l-88.063,0.97h-0.929l-7.551,0.082l-6.456,0.07l-19.802,0.217h-0.802l-10.081,0.111h-0.308l-62.136,0.679l-55.462,0.588
	l-6.452,0.069l-40.068,0.441h-0.046l-25.987,0.281h-0.277l-82.169,0.899l-24.581,0.27c-2.094,0.023-4.185-0.082-6.267-0.316l0,0
	c-0.708-0.082-1.417-0.176-2.119-0.288c-11.463-1.789-21.976-7.492-29.783-16.162c-10.575-11.753-18.269-25.468-23.438-40.348
	c-0.748-2.148-1.444-4.323-2.091-6.526c-17.892-61.116,3.92-139.964,43.173-192.729c1.646-2.208,3.32-4.359,5.019-6.455l0.042-0.048
	c12.072-14.976,25.608-27.486,40.027-36.382c25.551-15.79,53.858-20.238,81.704-6.982c23.558,11.219,45.555,16.495,66.88,17.927
	c2.153,0.141,4.308,0.246,6.449,0.31c48.913,1.555,94.753-16.254,148.584-27.75c2.143-0.457,4.291-0.909,6.457-1.336
	c38.402-7.722,81.002-11.795,131.662-3.234c5.263,0.868,10.456,2.124,15.539,3.755c2.234,0.728,4.386,1.51,6.457,2.347
	c24.181,9.941,37.368,28.307,42.972,51.32c0.531,2.136,0.989,4.31,1.377,6.519C811.518,292.602,782.418,371.129,757.234,425.637z"/>
<rect x="624.067" y="292.998" fill="#3B5FB6" width="6.408" height="253.129"/>
<path fill="#3B5FB6" d="M689.616,325.256c0.407,88.513-61.865,160.556-61.865,160.556s-62.935-71.466-63.344-159.979
	c-0.408-88.513,61.865-160.556,61.865-160.556S689.207,236.743,689.616,325.256z"/>
<rect x="499.045" y="412.098" fill="#3B5FB6" width="3.296" height="130.189"/>
<path fill="#3B5FB6" d="M532.759,428.689c0.211,45.524-31.82,82.579-31.82,82.579s-32.368-36.757-32.578-82.281
	c-0.211-45.523,31.818-82.578,31.818-82.578S532.549,383.165,532.759,428.689z"/>
<ellipse fill="#3B5FB6" cx="587.61" cy="397.347" rx="89.298" ry="13.688"/>
<path fill="#3F3D56" d="M488.866,183.397L488.866,183.397c7.349,1.947,13.706,6.565,17.829,12.952l2.132,3.301l0.107,0.136
	l37.404,10.945c1.426,0.417,2.254,1.9,1.865,3.334l-2.903,10.648c-0.397,1.451-1.896,2.309-3.349,1.912
	c-0.006-0.002-0.012-0.003-0.017-0.005l-37.414-10.458l-0.001,0.001l-3.757,1.42c-6.919,2.617-14.509,2.874-21.59,0.734l0,0
	L488.866,183.397z"/>
<ellipse transform="matrix(-0.2809 0.9597 -0.9597 -0.2809 875.8461 -230.0766)" fill="#575A89" cx="524.12" cy="213.094" rx="2.284" ry="4.283"/>
<circle fill="#3F3D56" cx="526.348" cy="213.822" r="1.571"/>
<ellipse transform="matrix(-0.3084 0.9513 -0.9513 -0.3084 824.685 -197.5011)" fill="#6C63FF" cx="484.137" cy="201.034" rx="18.308" ry="8.279"/>
<path opacity="0.4" enable-background="new    " d="M490.83,203.225c3.006-9.269,2.188-17.907-1.767-19.786
	c0.238,0.03,0.473,0.082,0.701,0.155c4.351,1.411,5.349,10.353,2.229,19.972c-3.119,9.619-9.173,16.273-13.523,14.862
	c-0.157-0.052-0.312-0.114-0.461-0.186C482.287,218.789,487.876,212.338,490.83,203.225z"/>
<path fill="#3B5FB6" d="M489.358,183.432l-84.891-65.85c-15.012-11.729-29.416-24.213-43.16-37.404
	c-24.198-23.066-57.047-41.508-95.296-51.327C173.088,4.996,99.474,47.294,65.992,109.401
	c-51.164,94.906-90.375,248.915,136.487,166.936c49.613-17.929,99.834-19.834,137.915-29.278l137.885-28.43L489.358,183.432z"/>
<circle fill="#F2F2F2" cx="234.5" cy="68.061" r="4.563"/>
<polygon fill="#F2F2F2" points="323.132,78.607 321.946,78.607 321.946,77.419 321.713,77.419 321.713,78.607 320.527,78.607 
	320.527,78.839 321.713,78.839 321.713,80.026 321.946,80.026 321.946,78.839 323.132,78.839 "/>
<polygon fill="#F2F2F2" points="442.414,177.682 441.227,177.682 441.227,176.494 440.995,176.494 440.995,177.682 439.807,177.682 
	439.807,177.915 440.995,177.915 440.995,179.102 441.227,179.102 441.227,177.915 442.414,177.915 "/>
<polygon fill="#F2F2F2" points="433.942,208.318 432.754,208.318 432.754,207.13 432.522,207.13 432.522,208.318 431.334,208.318 
	431.334,208.55 432.522,208.55 432.522,209.737 432.754,209.737 432.754,208.55 433.942,208.55 "/>
<polygon fill="#F2F2F2" points="69.578,234.39 68.39,234.39 68.39,233.203 68.158,233.203 68.158,234.39 66.971,234.39 
	66.971,234.622 68.158,234.622 68.158,235.81 68.39,235.81 68.39,234.622 69.578,234.622 "/>
<polygon fill="#F2F2F2" points="121.723,92.295 120.536,92.295 120.536,91.107 120.303,91.107 120.303,92.295 119.115,92.295 
	119.115,92.527 120.303,92.527 120.303,93.715 120.536,93.715 120.536,92.527 121.723,92.527 "/>
<polygon fill="#F2F2F2" points="324.436,213.532 323.249,213.532 323.249,212.344 323.017,212.344 323.017,213.532 321.83,213.532 
	321.83,213.764 323.017,213.764 323.017,214.952 323.249,214.952 323.249,213.764 324.436,213.764 "/>
<polygon fill="#F2F2F2" points="199.941,50.579 198.753,50.579 198.753,49.391 198.521,49.391 198.521,50.579 197.333,50.579 
	197.333,50.811 198.521,50.811 198.521,51.998 198.753,51.998 198.753,50.811 199.941,50.811 "/>
<path fill="#E6E6E6" d="M200.397,144.425l-1.481,0.229c0.463,2.959,0.828,5.983,1.096,8.975l1.493-0.13
	C201.238,150.469,200.867,147.418,200.397,144.425z"/>
<path fill="#E6E6E6" d="M196.348,126.605l-1.434,0.437c0.867,2.868,1.642,5.808,2.301,8.734l1.466-0.332
	C198.011,132.484,197.222,129.512,196.348,126.605z"/>
<path fill="#E6E6E6" d="M189.889,109.514l-1.362,0.626c1.251,2.731,2.425,5.534,3.488,8.336l1.4-0.527
	C192.34,115.114,191.161,112.271,189.889,109.514z"/>
<path fill="#E6E6E6" d="M181.155,93.493l-1.265,0.801c1.61,2.529,3.154,5.15,4.589,7.776l1.317-0.715
	C184.349,98.695,182.785,96.048,181.155,93.493z"/>
<path fill="#E6E6E6" d="M170.296,78.808l-1.14,0.971c1.942,2.282,3.833,4.668,5.619,7.08l1.2-0.894
	C174.175,83.527,172.264,81.115,170.296,78.808z"/>
<path fill="#E6E6E6" d="M157.533,65.732l-0.998,1.115c2.243,2,4.44,4.106,6.532,6.251l1.075-1.05
	C162.025,69.878,159.801,67.753,157.533,65.732z"/>
<path fill="#E6E6E6" d="M143.115,54.509l-0.841,1.239c2.49,1.673,4.955,3.461,7.321,5.306l0.925-1.18
	C148.121,58.008,145.632,56.204,143.115,54.509z"/>
<path fill="#E6E6E6" d="M129.995,46.712v1.694c1.557,0.815,3.103,1.669,4.614,2.542l0.75-1.297
	C133.599,48.635,131.81,47.655,129.995,46.712z"/>
<path fill="#E6E6E6" d="M200.497,162.876l1.498-0.027c0.028,1.513,0.029,3.034,0.006,4.52l-1.498-0.021
	C200.526,165.876,200.524,164.371,200.497,162.876z"/>
<path fill="#E6E6E6" d="M112.402,272.833l-1.48,0.229c0.462,2.959,0.827,5.982,1.095,8.976l1.493-0.131
	C113.242,278.875,112.871,275.824,112.402,272.833z"/>
<path fill="#E6E6E6" d="M108.353,255.013l-1.434,0.437c0.866,2.867,1.643,5.808,2.301,8.734l1.467-0.333
	C110.016,260.892,109.228,257.92,108.353,255.013z"/>
<path fill="#E6E6E6" d="M101.895,237.922l-1.363,0.625c1.251,2.731,2.424,5.534,3.486,8.337l1.403-0.528
	C104.346,243.521,103.165,240.679,101.895,237.922z"/>
<path fill="#E6E6E6" d="M93.159,221.9l-1.265,0.802c1.611,2.529,3.156,5.149,4.589,7.777l1.318-0.717
	C96.354,227.101,94.789,224.455,93.159,221.9z"/>
<path fill="#E6E6E6" d="M82.302,207.215l-1.141,0.972c1.941,2.281,3.833,4.667,5.619,7.079l1.199-0.893
	C86.18,211.934,84.27,209.522,82.302,207.215z"/>
<path fill="#E6E6E6" d="M69.539,194.14l-0.997,1.113c2.243,2.003,4.439,4.107,6.531,6.251l1.076-1.049
	C74.03,198.285,71.807,196.16,69.539,194.14z"/>
<path fill="#E6E6E6" d="M55.121,182.915l-0.841,1.238c2.49,1.675,4.954,3.461,7.32,5.306l0.926-1.18
	C60.126,186.416,57.635,184.61,55.121,182.915z"/>
<path fill="#E6E6E6" d="M42,175.119v1.695c1.557,0.814,3.101,1.668,4.615,2.542l0.75-1.297
	C45.603,177.043,43.816,176.063,42,175.119z"/>
<path fill="#E6E6E6" d="M112.503,291.283l1.498-0.027c0.028,1.513,0.03,3.034,0.006,4.521l-1.498-0.023
	C112.532,294.284,112.531,292.779,112.503,291.283z"/>
<path fill="#E6E6E6" d="M413.539,208.303l-1.479,0.228c0.463,2.959,0.827,5.982,1.095,8.976l1.493-0.13
	C414.381,214.345,414.009,211.296,413.539,208.303z"/>
<path fill="#E6E6E6" d="M409.492,190.482l-1.434,0.438c0.866,2.867,1.641,5.808,2.301,8.734l1.466-0.333
	C411.154,196.362,410.366,193.39,409.492,190.482z"/>
<path fill="#E6E6E6" d="M403.032,173.392l-1.364,0.625c1.252,2.731,2.426,5.534,3.488,8.337l1.403-0.528
	C405.484,178.991,404.303,176.149,403.032,173.392z"/>
<path fill="#E6E6E6" d="M394.298,157.37l-1.265,0.802c1.61,2.529,3.155,5.149,4.589,7.776l1.317-0.716
	C397.492,162.573,395.927,159.926,394.298,157.37z"/>
<path fill="#E6E6E6" d="M383.44,142.685l-1.141,0.973c1.943,2.281,3.833,4.667,5.62,7.079l1.198-0.893
	C387.317,147.405,385.408,144.993,383.44,142.685z"/>
<path fill="#E6E6E6" d="M370.677,129.61l-0.998,1.115c2.242,2.001,4.438,4.106,6.531,6.25l1.075-1.049
	C375.168,133.755,372.945,131.631,370.677,129.61z"/>
<path fill="#E6E6E6" d="M356.259,118.385l-0.841,1.238c2.49,1.675,4.955,3.462,7.32,5.306l0.926-1.18
	C361.263,121.886,358.774,120.081,356.259,118.385z"/>
<path fill="#E6E6E6" d="M343.138,110.591v1.694c1.558,0.814,3.102,1.668,4.615,2.542l0.75-1.297
	C346.741,112.513,344.954,111.533,343.138,110.591z"/>
<path fill="#E6E6E6" d="M413.64,226.754l1.499-0.027c0.026,1.512,0.029,3.034,0.005,4.52l-1.498-0.022
	C413.67,229.754,413.668,228.25,413.64,226.754z"/>
<polygon fill="#F2F2F2" points="123.904,152.392 122.799,152.392 122.799,151.287 122.583,151.287 122.583,152.392 121.477,152.392 
	121.477,152.607 122.583,152.607 122.583,153.713 122.799,153.713 122.799,152.607 123.904,152.607 "/>
<polygon fill="#F2F2F2" points="111.166,219.11 110.062,219.11 110.062,218.005 109.846,218.005 109.846,219.11 108.74,219.11 
	108.74,219.327 109.846,219.327 109.846,220.43 110.062,220.43 110.062,219.327 111.166,219.327 "/>
<polygon fill="#F2F2F2" points="73.793,277.582 72.689,277.582 72.689,276.477 72.471,276.477 72.471,277.582 71.366,277.582 
	71.366,277.799 72.471,277.799 72.471,278.903 72.689,278.903 72.689,277.799 73.793,277.799 "/>
<path fill="#3F3D56" d="M177.758,203.421c-24.677-36.682-14.945-86.424,21.737-111.102c36.682-24.677,86.424-14.946,111.102,21.736
	c24.677,36.683,14.946,86.424-21.737,111.102c-21.827,14.684-49.475,17.707-73.96,8.085c-3.857,13.771-18.149,21.807-31.92,17.948
	c-13.771-3.858-21.805-18.149-17.948-31.919C166.937,212.474,171.533,206.75,177.758,203.421z"/>
<path fill="#FFFFFF" d="M243.729,112.985c18.352,0,30.976,10.178,30.976,24.811c0,9.689-4.697,16.394-13.751,21.728
	c-8.515,4.942-11.401,8.564-11.401,14.828l0,0c0,2.134-1.731,3.865-3.867,3.865l0,0h-9.381c-2.083,0-3.79-1.648-3.864-3.731
	l-0.016-0.477c-0.832-10.082,2.691-16.345,11.549-21.533c8.27-4.941,11.745-8.074,11.745-14.143c0-6.066-5.872-10.52-13.164-10.52
	c-5.542,0-9.928,2.698-11.939,7.101c-1.444,3.045-4.526,4.972-7.896,4.938l0,0c-6.356,0-10.556-6.761-7.583-12.379
	C219.839,118.585,229.761,112.985,243.729,112.985z M230.859,196.862c0-5.627,4.698-10.081,10.473-10.081
	c5.824,0,10.521,4.404,10.521,10.081c0,5.677-4.697,10.081-10.521,10.081C235.508,206.943,230.859,202.539,230.859,196.862z"/>
<polygon fill="#FFB8B8" points="525.402,517.056 526.204,524.291 518.97,523.488 518.97,514.643 "/>
<polygon fill="#FFB8B8" points="600.968,517.056 600.164,524.291 607.4,523.488 607.4,514.643 "/>
<path fill="#2F2E41" d="M526.763,361.908l-5.381,81.992c0,0-10.45,61.9-8.039,63.509c2.411,1.607,0,10.451,0,10.451l13.667,1.606
	c0,0,0-6.431,3.215-8.842c3.215-2.412,32.96-115.765,32.96-115.765l30.549,109.333c0,0-0.803,6.432,1.609,6.432
	c2.411,0,3.214,8.842,3.214,8.842h13.669v-8.842c0,0,4.018-0.804,1.606-7.234c-2.412-6.434-14.231-135.26-14.231-135.26
	L526.763,361.908z"/>
<circle fill="#F2F2F2" cx="573.635" cy="300.703" r="3.402"/>
<path fill="#2F2E41" d="M520.578,517.056c0,0-4.02-2.413-5.628-0.805c-1.607,1.607-14.47,17.687-14.47,17.687
	s-17.688,11.255-1.609,14.47c16.079,3.216,28.138-12.058,28.941-13.666c0.804-1.607-0.804-14.471-1.608-12.864
	c-0.803,1.609-3.216,0.805-4.019,0C521.382,521.076,520.578,517.056,520.578,517.056z"/>
<path fill="#2F2E41" d="M605.793,517.056c0,0,4.019-2.413,5.627-0.805c1.608,1.607,14.472,17.687,14.472,17.687
	s17.686,11.255,1.606,14.47c-16.078,3.216-28.136-12.058-28.939-13.666c-0.804-1.607,0.804-14.471,1.607-12.864
	c0.803,1.609,3.215,0.805,4.019,0C604.989,521.076,605.793,517.056,605.793,517.056z"/>
<circle fill="#FFB8B8" cx="573.235" cy="225.636" r="16.48"/>
<polygon fill="#FFB8B8" points="562.381,234.882 559.969,259.802 579.263,263.823 584.086,234.078 "/>
<path fill="#575A89" d="M582.478,254.176c0,0-4.822,10.45-22.509-0.804l-32.96,107.725c0,0,44.216,26.529,72.352,6.432
	l-9.646-108.529L582.478,254.176z"/>
<path fill="#FFFFFF" d="M611.357,276.382l-2.722,20.063l-2.47,17.574l-0.28,1.792l-3.234,20.753l-2.152,13.787l-0.754,18.447
	c-6.127,16.412-72.308,0.227-72.753-7.578l2.127-14.912l1.539-16.832l3.154-19.399c-0.341-0.928,0.356-3.341,0.14-4.303
	c-1.509-6.24,0.949-9.743-0.29-20.119c-1.001-8.352,0.049-16.886-0.103-18.385c-0.021-0.197,0.691-6.903,0.691-6.903l26.691-8.668
	c2.034,5.271,10.374,5.126,10.374,5.126c8.593-0.106,10.065-4.265,10.676-4.577L611.357,276.382z"/>
<path fill="#3F3D56" d="M590.92,269.905h-0.303v-8.289c0-2.649-2.147-4.798-4.798-4.798h-17.562c-2.649,0-4.797,2.149-4.797,4.798
	v45.475c0,2.649,2.147,4.798,4.797,4.798h17.562c2.65,0,4.798-2.148,4.798-4.798v-31.285h0.303V269.905z"/>
<path fill="#FFB8B8" d="M598.557,302.41c0,0-6.431-20.901-16.079-14.47c-9.645,6.431,6.434,24.117,6.434,24.117L598.557,302.41z"/>
<path fill="#FFB8B8" d="M554.343,287.135c0,0,11.254-13.667,16.882-7.235s-9.646,20.901-9.646,20.901L554.343,287.135z"/>
<path fill="#FFFFFF" d="M534.603,260.273c0,0-6.766,1.871-9.177,9.107c-2.412,7.235-10.873,31.179-10.873,36.001
	c0,4.824-3.621,24.361,14.064,21.146s38.587-25.726,38.587-25.726l-11.253-16.883l-21.253,14.03L534.603,260.273z"/>
<path fill="#FFFFFF" d="M610.615,275.883c0,0,2.412,1.606,4.02,8.842c1.606,7.234,12.058,34.567,8.039,40.999
	c-4.019,6.433-10.45,20.902-24.117,11.255l-13.667-24.921l13.667-12.863l5.627,4.02L610.615,275.883z"/>
<circle fill="#FFFFFF" cx="577.254" cy="273.066" r="4.02"/>
<g transform="matrix(-0.367156, -0.006971, -0.006971, 0.367156, 1098.196289, 136.186752)">
	<title>Cabello</title>
	<path fill="#2F2E41" d="M1397.733,244.341c-1.182,3.544,44.719,28.026,42.764,26.224c-1.981-3.83-4.688-31.189-1.61-31.189
		L1397.733,244.341z"/>
	<path fill="#2F2E41" d="M1390.013,228.881l-11.146-10.283l1.482,13.424l-21.47-5.054l22.9,15.179"/>
	<path fill="#2F2E41" d="M1018.81,238.566"/>
	<path fill="#2F2E41" d="M1432.86,251.382c6.948-2.568,23.883,18.442,23.862,23.487c7.013-9.043,11.068-32.826,11.4-32.067
		L1432.86,251.382z"/>
	<path fill="#2F2E41" d="M1387.523,246.104c-3.822,0.804-5.766,39.338-4.559,41.726c-6.456-4.858-16.457-17.317-13.837-27.995
		L1387.523,246.104z"/>
	<path fill="#2F2E41" d="M1403.78,247.905c-5.961,2.253-3.407,30.649-1.194,29.812c-4.409,3.152-25.919-25.402-25.862-31.922
		L1403.78,247.905z"/>
	<path fill="#2F2E41" d="M1385.474,234.984c1.148-38.487,40.074-29.067,44.757-47.118c4.665,10.398,16.091,34.524-4.345,35.119
		c0,0-44.934,25.471-45.442,25.322S1385.518,236.706,1385.474,234.984z"/>
	<path fill="#2F2E41" d="M1018.81,238.566"/>
	<path fill="#2F2E41" d="M1472.829,260.198c0.001,3.319,13.734,7.223,17.19,3.658c-12.748-8.557-6.124-35.248-34.215-33.398
		C1444.663,230.989,1451.963,234.282,1472.829,260.198z"/>
	<path fill="#2F2E41" d="M1451.562,235.952c4.071,11.529,34.689-7.015,37.833-13.738c-19.157,8.61-15.646-17.608-58.392-13.4
		C1421.012,210.154,1426.771,223.312,1451.562,235.952z"/>
	<path fill="#2F2E41" d="M1437.863,225.619c6.02,7.395,28.925-19.442,29.462-25.205c-13.794,12.21-29.066-1.282-44.775,6.845
		C1415.567,210.872,1416.334,222.864,1437.863,225.619z"/>
	<path fill="#2F2E41" d="M1386.084,237.831c-21.116-4.339-20.766,18.796-31.176,19.095c5.093,3.976,16.835,13.534,19.669,2.104
		c0,0,19.401-22.001,19.38-22.306C1393.942,236.422,1387.016,238.079,1386.084,237.831z"/>
	<path fill="#2F2E41" d="M1461.319,249.923c3.414,1.44,7.337,32.026,6.41,34.473c5.414-4.399,12.247-17.184,9.323-29.302
		L1461.319,249.923z"/>
	<path fill="#2F2E41" d="M1394.683,227.362c-2.964,0.901-6.186,1.803-9.664,2.706c-5.498,1.425-5.755,7.095-0.775,17.012
		c0.787,1.566-0.888,2.082-5.024,1.544c-2.977-0.386-3.105,2.58-0.387,8.892c1.493,3.466,5.228,3.981,11.214,1.547
		c5.471-2.229,10.367-5.707,14.686-10.439c3.738-4.093,9.281-3.965,16.627,0.385c8.309,4.924,18.102,6.21,29.381,3.869
		c5.998-1.247,12.053-0.346,18.171,2.706c1.204,0.597,2.105,1.886,2.706,3.867c1.179,3.868-3.837,2.055,1.943-5.938
		c3.076-4.252,1.623-9.268-5.833-14.555c-4.26-3.016,0.537-9.072-5-9.664c-5.744-0.614-8.709-1.904-11.986-8.505
		c-4.878-9.826-19.439-7.765-36.728,2.32C1408.125,226.542,1401.683,227.959,1394.683,227.362z"/>
</g>
</svg>
