<?xml version="1.0" encoding="utf-8"?>
<!-- Generator: Adobe Illustrator 16.0.3, SVG Export Plug-In . SVG Version: 6.00 Build 0)  -->
<!DOCTYPE svg PUBLIC "-//W3C//DTD SVG 1.1//EN" "http://www.w3.org/Graphics/SVG/1.1/DTD/svg11.dtd">
<svg version="1.1" id="b6117b06-2b45-45bc-b789-4a82ab6612dd"
	 xmlns="http://www.w3.org/2000/svg" xmlns:xlink="http://www.w3.org/1999/xlink" x="0px" y="0px" width="1139.172px"
	 height="654.543px" viewBox="0 0 1139.172 654.543" enable-background="new 0 0 1139.172 654.543" xml:space="preserve">
<title>progressive_app</title>
<circle fill="#F2F2F2" cx="246.827" cy="521.764" r="59.244"/>
<circle fill="#3F95E6" cx="256.46" cy="513.095" r="59.243"/>
<rect x="304.172" y="447.543" fill="#3F3D56" width="733" height="2"/>
<path fill="#3F3D56" d="M683.793,18.653H423.624V13.29H305.652v5.362H44.41c-9.719,0-17.599,7.879-17.599,17.598l0,0v356.252
	c0,9.72,7.88,17.599,17.599,17.599h639.383c9.72,0,17.599-7.879,17.599-17.599V36.25C701.391,26.531,693.512,18.653,683.793,18.653
	L683.793,18.653z"/>
<rect x="50.406" y="49.753" fill="#3F95E6" width="627.392" height="353.913"/>
<circle fill="#FFFFFF" cx="363.565" cy="33.667" r="6.435"/>
<polygon opacity="0.1" enable-background="new    " points="498.374,403.667 50.406,403.667 50.406,49.754 "/>
<circle fill="#F2F2F2" cx="148.574" cy="316.876" r="60.307"/>
<rect x="509.953" y="240.621" fill="#3F3D56" width="58.605" height="12.246"/>
<rect x="439.102" y="145.279" fill="#3F3D56" width="200.307" height="5.249"/>
<rect x="439.102" y="161.899" fill="#3F3D56" width="200.307" height="5.248"/>
<rect x="439.102" y="178.518" fill="#3F3D56" width="200.307" height="5.248"/>
<rect x="439.102" y="195.137" fill="#3F3D56" width="200.307" height="5.248"/>
<rect x="439.102" y="211.756" fill="#3F3D56" width="200.307" height="5.249"/>
<rect x="614.918" y="56.934" fill="#F2F2F2" width="24.491" height="24.491"/>
<path fill="#3F3D56" d="M650.78,92.797h-29.739v-29.74h29.739V92.797z M622.334,91.503h27.153V64.35h-27.153V91.503z"/>
<path fill="#3F3D56" d="M719.008,397.232h-61.229v-4.412c0-0.482-0.392-0.874-0.875-0.874l0,0H635.91
	c-0.482,0-0.874,0.392-0.874,0.874l0,0v4.412h-13.121v-4.412c0-0.482-0.392-0.874-0.874-0.874l0,0h-20.993
	c-0.483,0-0.875,0.392-0.875,0.874l0,0v4.412h-13.12v-4.412c0-0.482-0.392-0.874-0.875-0.874l0,0h-20.993
	c-0.482,0-0.874,0.392-0.874,0.874l0,0v4.412h-13.121v-4.412c0-0.482-0.392-0.874-0.875-0.874l0,0h-20.992
	c-0.483,0-0.875,0.392-0.875,0.874l0,0v4.412h-13.12v-4.412c0-0.482-0.392-0.874-0.875-0.874l0,0h-20.993
	c-0.483,0-0.875,0.392-0.875,0.874l0,0v4.412h-13.12v-4.412c0-0.482-0.392-0.874-0.875-0.874l0,0h-20.992
	c-0.483,0-0.875,0.392-0.875,0.874l0,0v4.412H442.6v-4.412c0-0.482-0.392-0.874-0.874-0.874l0,0H277.281
	c-0.482,0-0.874,0.392-0.874,0.874l0,0v4.412h-13.121v-4.412c0-0.482-0.392-0.874-0.874-0.874l0,0h-20.993
	c-0.483,0-0.875,0.392-0.875,0.874l0,0v4.412h-13.12v-4.412c0-0.482-0.392-0.874-0.875-0.874l0,0h-20.993
	c-0.483,0-0.875,0.392-0.875,0.874l0,0v4.412h-13.12v-4.412c0-0.482-0.392-0.874-0.875-0.874l0,0h-20.992
	c-0.483,0-0.875,0.392-0.875,0.874l0,0v4.412h-13.121v-4.412c0-0.482-0.392-0.874-0.874-0.874l0,0H133.83
	c-0.483,0-0.875,0.392-0.875,0.874l0,0v4.412h-13.12v-4.412c0-0.482-0.392-0.874-0.875-0.874l0,0H97.967
	c-0.482,0-0.874,0.392-0.874,0.874l0,0v4.412H83.971v-4.412c0-0.482-0.392-0.874-0.874-0.874l0,0H62.104
	c-0.483,0-0.875,0.392-0.875,0.874l0,0v4.412H20.993C9.399,397.232,0,406.63,0,418.225v9.492c0,11.594,9.399,20.993,20.993,20.993
	h698.015c11.594,0,20.992-9.399,20.992-20.993v-9.492C740,406.63,730.601,397.232,719.008,397.232z"/>
<path fill="#3F3D56" d="M163.172,354.543c-41.974,0-76-34.026-76-76s34.026-76,76-76s76,34.026,76,76
	C239.124,320.497,205.126,354.495,163.172,354.543z M163.172,204.543c-40.869,0-74,33.131-74,74s33.131,74,74,74s74-33.131,74-74
	C237.125,237.694,204.021,204.589,163.172,204.543z"/>
<rect x="586.172" y="32.543" fill="#3F3D56" width="255" height="2"/>
<rect x="406.172" y="560.543" fill="#3F3D56" width="733" height="2"/>
<rect x="192.672" y="652.543" fill="#3F3D56" width="255" height="2"/>
<rect x="471" y="549.999" fill="#3F95E6" width="28" height="28"/>
<path fill="#3F3D56" d="M516,561.999h-34v-34h34V561.999z M483.478,560.522h31.044v-31.044h-31.044V560.522z"/>
<rect x="796" y="22" fill="#3F95E6" width="28" height="28"/>
<path fill="#3F3D56" d="M841,34h-34V0h34V34z M808.478,32.522h31.044V1.478h-31.044V32.522z"/>
<rect x="1078" y="549.999" fill="#3F95E6" width="28" height="28"/>
<path fill="#3F3D56" d="M1123,561.999h-34v-34h34V561.999z M1090.478,560.522h31.044v-31.044h-31.044V560.522z"/>
<path fill="#3F3D56" d="M1057.172,231.958h-2.379v-65.162c0-20.828-16.885-37.713-37.714-37.713l0,0H879.026
	c-20.829-0.001-37.714,16.885-37.714,37.713l0,0v357.481c0,20.829,16.885,37.714,37.713,37.714c0,0,0,0,0.001,0h138.053
	c20.829,0,37.714-16.885,37.714-37.714l0,0V278.341h2.379V231.958z"/>
<path fill="#3F95E6" d="M1046.761,169.013v356.96c0.003,15.555-12.604,28.167-28.16,28.17h-138.72
	c-15.555-0.003-28.162-12.615-28.16-28.17v-356.96c0.002-15.552,12.608-28.158,28.16-28.16h16.83
	c-2.789,6.843,0.496,14.65,7.339,17.44c1.604,0.653,3.319,0.99,5.051,0.99h79.091c7.389,0,13.379-5.989,13.38-13.379
	c0-1.731-0.336-3.447-0.99-5.052h18.02C1034.153,140.855,1046.76,153.461,1046.761,169.013z"/>
<rect x="928.58" y="376.217" fill="#3F3D56" width="41.323" height="12.246"/>
<rect x="878.622" y="280.875" fill="#3F3D56" width="141.24" height="5.248"/>
<rect x="878.622" y="297.494" fill="#3F3D56" width="141.24" height="5.248"/>
<rect x="878.622" y="314.114" fill="#3F3D56" width="141.24" height="5.248"/>
<rect x="878.622" y="330.733" fill="#3F3D56" width="141.24" height="5.248"/>
<rect x="878.622" y="347.352" fill="#3F3D56" width="141.24" height="5.249"/>
<rect x="929.683" y="211.179" fill="#F2F2F2" width="24.492" height="24.491"/>
<path fill="#3F3D56" d="M939.059,217.303v29.74h29.74v-29.74H939.059z M967.51,245.753h-27.16v-27.16h27.16V245.753z"/>
<path opacity="0.1" enable-background="new    " d="M1046.761,487.853v38.12c0.003,15.556-12.604,28.167-28.16,28.17h-138.72
	c-15.555-0.003-28.162-12.615-28.16-28.17v-192.21l116.87,92.33l2,1.58l21.74,17.17l2.03,1.61L1046.761,487.853z"/>
<circle fill="#F2F2F2" cx="937.242" cy="498.707" r="43.868"/>
<path fill="#3F3D56" d="M320.172,654.543c-48.049,0-87-38.951-87-87s38.951-87,87-87s87,38.951,87,87
	C407.117,615.57,368.198,654.489,320.172,654.543z M320.172,482.543c-46.944,0-85,38.056-85,85s38.056,85,85,85s85-38.056,85-85
	C405.118,520.62,367.094,482.596,320.172,482.543z"/>
<path fill="#3F3D56" d="M950.172,532.543c-30.376,0-55-24.625-55-55c0-30.376,24.624-55,55-55s55,24.624,55,55
	C1005.137,507.905,980.533,532.509,950.172,532.543z M950.172,424.543c-29.271,0-53,23.729-53,53c0,29.271,23.729,53,53,53
	s53-23.729,53-53l0,0C1003.138,448.285,979.429,424.575,950.172,424.543z"/>
</svg>
